<svg width="293" height="165" viewBox="0 0 293 165" fill="none" xmlns="http://www.w3.org/2000/svg">
<g clip-path="url(#clip0_221_886)">
<path d="M285.192 117.744H16.3565L7.68433 110.295V47.1908H276.538L285.192 54.3371V117.744Z" fill="#D3740D"/>
<mask id="mask0_221_886" style="mask-type:luminance" maskUnits="userSpaceOnUse" x="6" y="46" width="281" height="73">
<path d="M6.7146 46.2686H286.285V118.685H6.7146V46.2686Z" fill="white"/>
</mask>
<g mask="url(#mask0_221_886)">
<path d="M285.192 118.669H16.3566C16.1357 118.669 15.9219 118.59 15.7542 118.446L7.08197 110.998C6.87691 110.821 6.75928 110.566 6.75928 110.295V47.1907C6.75928 46.6791 7.17338 46.2661 7.68365 46.2661H276.538C276.753 46.2661 276.962 46.3401 277.127 46.477L285.781 53.6233C285.993 53.7984 286.117 54.061 286.117 54.3371V117.744C286.117 118.255 285.703 118.669 285.192 118.669ZM16.6992 116.818H284.267V54.7731L276.207 48.117H8.6096V109.87L16.6992 116.818Z" fill="black"/>
</g>
<path d="M7.68433 47.1908H276.538V110.295H7.68433V47.1908Z" fill="#FBBC5F"/>
<path d="M276.538 110.295L285.192 117.744Z" fill="white"/>
<mask id="mask1_221_886" style="mask-type:luminance" maskUnits="userSpaceOnUse" x="275" y="109" width="12" height="10">
<path d="M275.501 109.185H286.285V118.685H275.501V109.185Z" fill="white"/>
</mask>
<g mask="url(#mask1_221_886)">
<path d="M285.192 118.669C284.978 118.669 284.764 118.595 284.589 118.445L275.936 110.997C275.548 110.664 275.505 110.08 275.838 109.692C276.171 109.305 276.754 109.26 277.142 109.594L285.796 117.042C286.183 117.376 286.227 117.96 285.894 118.348C285.71 118.56 285.452 118.669 285.192 118.669Z" fill="black"/>
</g>
<mask id="mask2_221_886" style="mask-type:luminance" maskUnits="userSpaceOnUse" x="-30" y="-17" width="353" height="199">
<path d="M322.3 -16.5H-29.3V181.5H322.3V-16.5Z" fill="black" fill-opacity="0.8"/>
</mask>
<g mask="url(#mask2_221_886)">
<mask id="mask3_221_886" style="mask-type:luminance" maskUnits="userSpaceOnUse" x="7" y="46" width="270" height="65">
<path d="M276.926 46.8518H7.52832V110.611H276.926V46.8518Z" fill="white"/>
</mask>
<g mask="url(#mask3_221_886)">
<mask id="mask4_221_886" style="mask-type:luminance" maskUnits="userSpaceOnUse" x="7" y="84" width="270" height="5">
<path d="M7.56909 84.9445H276.722V88.6111H7.56909V84.9445Z" fill="white"/>
</mask>
<g mask="url(#mask4_221_886)">
<mask id="mask5_221_886" style="mask-type:luminance" maskUnits="userSpaceOnUse" x="7" y="85" width="270" height="4">
<path d="M276.538 88.2037V85.7426C268.983 85.5365 260.994 85.32 252.689 85.0917C182.847 85.5564 90.6181 85.9709 7.68408 86.2972V88.4393C102.692 88.2292 204.627 88.1942 276.538 88.2037Z" fill="white"/>
</mask>
<g mask="url(#mask5_221_886)">
<path d="M269.191 41.2365L7.13892 85.1831L15.0306 132.295L277.084 88.3477L269.191 41.2365Z" fill="#FBBC60"/>
</g>
</g>
<mask id="mask6_221_886" style="mask-type:luminance" maskUnits="userSpaceOnUse" x="7" y="79" width="178" height="6">
<path d="M7.56909 79.4445H184.956V84.7408H7.56909V79.4445Z" fill="white"/>
</mask>
<g mask="url(#mask6_221_886)">
<mask id="mask7_221_886" style="mask-type:luminance" maskUnits="userSpaceOnUse" x="7" y="79" width="178" height="6">
<path d="M79.7299 80.1805C56.3934 80.0508 38.0579 79.9052 28.7514 79.7445C28.7514 79.7445 20.7095 79.6952 7.68408 79.6219V84.5801C66.3254 84.2729 129.295 83.7485 184.819 83.2178C147.214 82.1667 109.421 81.0845 79.7299 80.1805Z" fill="white"/>
</mask>
<g mask="url(#mask7_221_886)">
<path d="M179.979 50.7271L6.87573 79.7572L12.5245 113.475L185.627 84.4448L179.979 50.7271Z" fill="#FBBC60"/>
</g>
</g>
<mask id="mask8_221_886" style="mask-type:luminance" maskUnits="userSpaceOnUse" x="153" y="80" width="124" height="3">
<path d="M153.011 80.4629H276.722V82.9073H153.011V80.4629Z" fill="white"/>
</mask>
<g mask="url(#mask8_221_886)">
<mask id="mask9_221_886" style="mask-type:luminance" maskUnits="userSpaceOnUse" x="153" y="80" width="124" height="3">
<path d="M276.538 82.2728V80.831C240.859 80.7538 195.518 80.6424 153.017 80.496L225.248 82.8179C243.938 82.6261 261.229 82.4415 276.538 82.2728Z" fill="white"/>
</mask>
<g mask="url(#mask9_221_886)">
<path d="M273.163 60.3463L152.638 80.5591L156.391 102.967L276.917 82.7545L273.163 60.3463Z" fill="#FBBC60"/>
</g>
</g>
<mask id="mask10_221_886" style="mask-type:luminance" maskUnits="userSpaceOnUse" x="7" y="74" width="270" height="6">
<path d="M7.56909 74.7593H276.722V79.6482H7.56909V74.7593Z" fill="white"/>
</mask>
<g mask="url(#mask10_221_886)">
<mask id="mask11_221_886" style="mask-type:luminance" maskUnits="userSpaceOnUse" x="7" y="74" width="270" height="6">
<path d="M276.538 79.536V78.0886C207.251 78.0329 100.413 77.4766 7.68408 74.9542V75.8216L79.0551 78.1164L276.538 79.536Z" fill="white"/>
</mask>
<g mask="url(#mask11_221_886)">
<path d="M269.191 31.0983L6.93774 75.0792L15.0305 123.392L277.285 79.4111L269.191 31.0983Z" fill="#FBBC60"/>
</g>
</g>
<mask id="mask12_221_886" style="mask-type:luminance" maskUnits="userSpaceOnUse" x="7" y="83" width="246" height="4">
<path d="M7.56909 83.1111H252.713V86.3703H7.56909V83.1111Z" fill="white"/>
</mask>
<g mask="url(#mask12_221_886)">
<path d="M184.819 83.2177C129.295 83.7492 66.3246 84.2728 7.68408 84.5807V86.2971C90.6181 85.9708 182.847 85.5563 252.689 85.0916C231.463 84.5123 208.18 83.8709 184.819 83.2177Z" fill="#E4A32F"/>
</g>
<path d="M276.538 84.4678V82.2725C261.229 82.4419 243.938 82.6266 225.249 82.8183L276.538 84.4678Z" fill="#E4A32F"/>
<mask id="mask13_221_886" style="mask-type:luminance" maskUnits="userSpaceOnUse" x="7" y="70" width="270" height="5">
<path d="M7.56909 70.0741H276.722V74.1482H7.56909V70.0741Z" fill="white"/>
</mask>
<g mask="url(#mask13_221_886)">
<mask id="mask14_221_886" style="mask-type:luminance" maskUnits="userSpaceOnUse" x="7" y="70" width="270" height="4">
<path d="M271.965 73.7717L276.538 73.132V72.345C210.765 72.2193 144.282 72.4652 78.9272 71.71C54.5948 71.4291 30.8895 70.8809 7.68408 70.0963V72.0514C108.152 74.3367 222.325 74.0582 271.965 73.7717Z" fill="white"/>
</mask>
<g mask="url(#mask14_221_886)">
<path d="M276.24 69.6173L5.04858 70.1011L7.98224 74.8157L279.174 74.3319L276.24 69.6173Z" fill="url(#paint0_radial_221_886)"/>
</g>
</g>
<mask id="mask15_221_886" style="mask-type:luminance" maskUnits="userSpaceOnUse" x="7" y="62" width="270" height="8">
<path d="M7.56909 62.7407H276.722V69.4629H7.56909V62.7407Z" fill="white"/>
</mask>
<g mask="url(#mask15_221_886)">
<mask id="mask16_221_886" style="mask-type:luminance" maskUnits="userSpaceOnUse" x="7" y="62" width="270" height="8">
<path d="M276.538 69.2808V67.3551L97.2262 65.5854C61.3595 64.9147 31.8131 63.9303 7.68335 62.8386V65.5958C100.363 69.1598 222.11 69.3866 276.538 69.2808Z" fill="white"/>
</mask>
<g mask="url(#mask16_221_886)">
<path d="M276.24 62.3596L3.61304 62.8458L7.98133 69.8656L280.609 69.3794L276.24 62.3596Z" fill="url(#paint1_radial_221_886)"/>
</g>
</g>
<mask id="mask17_221_886" style="mask-type:luminance" maskUnits="userSpaceOnUse" x="7" y="77" width="147" height="4">
<path d="M7.56909 77.4073H153.215V80.6666H7.56909V77.4073Z" fill="white"/>
</mask>
<g mask="url(#mask17_221_886)">
<mask id="mask18_221_886" style="mask-type:luminance" maskUnits="userSpaceOnUse" x="7" y="77" width="147" height="4">
<path d="M79.0551 78.1164L7.68408 77.6031V77.8283C20.7206 78.227 28.7705 78.4784 28.7705 78.4784C38.0698 78.8691 56.3982 79.4699 79.7299 80.1805C101.014 80.2982 126.459 80.4033 153.016 80.4956L79.0551 78.1164Z" fill="white"/>
</mask>
<g mask="url(#mask18_221_886)">
<path d="M7.77475 73.9795L7.61182 80.494L152.925 84.1185L153.088 77.6048L7.77475 73.9795Z" fill="url(#paint2_radial_221_886)"/>
</g>
</g>
<mask id="mask19_221_886" style="mask-type:luminance" maskUnits="userSpaceOnUse" x="252" y="84" width="25" height="2">
<path d="M252.509 84.7407H276.722V85.7592H252.509V84.7407Z" fill="white"/>
</mask>
<g mask="url(#mask19_221_886)">
<mask id="mask20_221_886" style="mask-type:luminance" maskUnits="userSpaceOnUse" x="252" y="84" width="25" height="2">
<path d="M276.538 85.7425V84.9253C268.937 84.9818 260.973 85.0375 252.689 85.0916C260.994 85.32 268.983 85.5372 276.538 85.7425Z" fill="white"/>
</mask>
<g mask="url(#mask20_221_886)">
<path d="M275.887 81.035L252.556 84.9476L253.341 89.6328L276.671 85.7202L275.887 81.035Z" fill="#FBBC60"/>
<path d="M252.704 84.3309L252.669 85.7417L276.523 86.3369L276.558 84.9253L252.704 84.3309Z" fill="url(#paint3_radial_221_886)"/>
</g>
</g>
<mask id="mask21_221_886" style="mask-type:luminance" maskUnits="userSpaceOnUse" x="79" y="80" width="147" height="4">
<path d="M79.5576 80.0555H225.447V83.3148H79.5576V80.0555Z" fill="white"/>
</mask>
<g mask="url(#mask21_221_886)">
<mask id="mask22_221_886" style="mask-type:luminance" maskUnits="userSpaceOnUse" x="79" y="80" width="147" height="4">
<path d="M225.248 82.8174L153.017 80.4955C126.46 80.4032 101.014 80.2982 79.73 80.1804C109.421 81.0844 147.214 82.1665 184.819 83.2177C198.835 83.084 212.373 82.9487 225.248 82.8174Z" fill="white"/>
</mask>
<g mask="url(#mask22_221_886)">
<path d="M221.272 56.4434L79.2349 80.2632L83.7065 106.955L225.744 83.1349L221.272 56.4434Z" fill="#FBBC60"/>
<path d="M79.8207 76.5527L79.6538 83.2161L225.158 86.8453L225.325 80.182L79.8207 76.5527Z" fill="url(#paint4_radial_221_886)"/>
</g>
</g>
<mask id="mask23_221_886" style="mask-type:luminance" maskUnits="userSpaceOnUse" x="7" y="75" width="73" height="4">
<path d="M7.56909 75.7777H79.1508V78.2222H7.56909V75.7777Z" fill="white"/>
</mask>
<g mask="url(#mask23_221_886)">
<mask id="mask24_221_886" style="mask-type:luminance" maskUnits="userSpaceOnUse" x="7" y="75" width="73" height="4">
<path d="M7.68408 75.8215V77.6031L79.0551 78.1164L7.68408 75.8215Z" fill="white"/>
</mask>
<g mask="url(#mask24_221_886)">
<path d="M77.1056 64.1794L7.30981 75.8844L9.63464 89.7586L79.4296 78.0536L77.1056 64.1794Z" fill="#FBBC60"/>
<path d="M7.72869 74.0424L7.62695 78.1148L79.0107 79.8957L79.1133 75.8232L7.72869 74.0424Z" fill="url(#paint5_radial_221_886)"/>
</g>
</g>
<path d="M184.82 83.2178C208.18 83.871 231.463 84.5124 252.689 85.0925C260.973 85.0376 268.937 84.9819 276.538 84.9254V84.4678L225.249 82.8175C212.373 82.9488 198.835 83.0841 184.82 83.2178Z" fill="#E4A32F"/>
<mask id="mask25_221_886" style="mask-type:luminance" maskUnits="userSpaceOnUse" x="184" y="82" width="93" height="4">
<path d="M184.753 82.7037H276.722V85.1482H184.753V82.7037Z" fill="white"/>
</mask>
<g mask="url(#mask25_221_886)">
<mask id="mask26_221_886" style="mask-type:luminance" maskUnits="userSpaceOnUse" x="184" y="82" width="93" height="4">
<path d="M184.819 83.2178C208.18 83.871 231.463 84.5124 252.689 85.0925C260.973 85.0376 268.937 84.9819 276.538 84.9254V84.4678L225.248 82.8175C212.373 82.9488 198.835 83.0841 184.819 83.2178Z" fill="white"/>
</mask>
<g mask="url(#mask26_221_886)">
<path d="M184.877 80.5314L184.762 85.0908L276.48 87.3793L276.595 82.8191L184.877 80.5314Z" fill="url(#paint6_radial_221_886)"/>
</g>
</g>
<mask id="mask27_221_886" style="mask-type:luminance" maskUnits="userSpaceOnUse" x="7" y="90" width="270" height="10">
<path d="M7.56909 90.6482H276.722V99.6112H7.56909V90.6482Z" fill="white"/>
</mask>
<g mask="url(#mask27_221_886)">
<path d="M7.68408 99.4695C77.5704 96.5842 152.039 96.2778 224.88 94.5105C243.652 94.0506 260.29 93.7888 276.538 93.5262V90.6704L7.68408 96.2643V99.4695Z" fill="#D78E2D"/>
</g>
<mask id="mask28_221_886" style="mask-type:luminance" maskUnits="userSpaceOnUse" x="7" y="89" width="270" height="5">
<path d="M7.56909 89.2222H276.722V93.0925H7.56909V89.2222Z" fill="white"/>
</mask>
<g mask="url(#mask28_221_886)">
<mask id="mask29_221_886" style="mask-type:luminance" maskUnits="userSpaceOnUse" x="7" y="89" width="270" height="4">
<path d="M7.68408 91.4112V92.9533C89.038 93.0575 199.15 91.595 276.538 90.3664V89.3208L232.23 89.5945C148.547 91.5027 72.1633 91.8225 7.68408 91.4112Z" fill="white"/>
</mask>
<g mask="url(#mask29_221_886)">
<path d="M269.363 84.9165L1.75806 89.4203L14.8598 97.4618L282.464 92.958L269.363 84.9165Z" fill="url(#paint7_radial_221_886)"/>
</g>
</g>
<mask id="mask30_221_886" style="mask-type:luminance" maskUnits="userSpaceOnUse" x="243" y="96" width="34" height="2">
<path d="M243.963 96.5555H276.722V97.3704H243.963V96.5555Z" fill="white"/>
</mask>
<g mask="url(#mask30_221_886)">
<mask id="mask31_221_886" style="mask-type:luminance" maskUnits="userSpaceOnUse" x="243" y="96" width="34" height="2">
<path d="M269.774 97.2693L276.538 97.0824V96.6901L243.963 97.2327L269.774 97.2693Z" fill="white"/>
</mask>
<g mask="url(#mask31_221_886)">
<path d="M277.456 97.2543L244.833 97.8033L243.044 96.706L275.669 96.157L277.456 97.2543Z" fill="url(#paint8_radial_221_886)"/>
</g>
</g>
<mask id="mask32_221_886" style="mask-type:luminance" maskUnits="userSpaceOnUse" x="7" y="95" width="270" height="10">
<path d="M7.56909 95.7407H276.722V104.5H7.56909V95.7407Z" fill="white"/>
</mask>
<g mask="url(#mask32_221_886)">
<mask id="mask33_221_886" style="mask-type:luminance" maskUnits="userSpaceOnUse" x="7" y="95" width="270" height="10">
<path d="M7.68408 104.431C70.7366 101.587 150.865 98.9777 245.778 97.9329L269.774 97.2693L243.964 97.2327L276.538 96.69V95.9126C194.769 97.3918 81.9181 99.7559 7.68408 102.669V104.431Z" fill="white"/>
</mask>
<g mask="url(#mask33_221_886)">
<path d="M290.047 104.204L14.8598 108.835L-5.82446 96.1402L269.363 91.5083L290.047 104.204Z" fill="url(#paint9_radial_221_886)"/>
</g>
</g>
<mask id="mask34_221_886" style="mask-type:luminance" maskUnits="userSpaceOnUse" x="7" y="98" width="270" height="13">
<path d="M7.56909 98.7963H276.722V110.407H7.56909V98.7963Z" fill="white"/>
</mask>
<g mask="url(#mask34_221_886)">
<path d="M276.538 98.8759C246.068 99.9095 214.537 100.781 196.783 101.203C144.265 102.451 94.9967 104.682 47.1267 107.063C34.1895 107.709 20.8637 108.298 7.68408 108.912V110.295H20.7993C25.5888 109.955 30.434 109.616 35.3547 109.275L88.9315 106.042C88.9315 106.042 123.49 104.569 132.824 104.397C142.148 104.247 236.424 101.278 236.424 101.278L276.538 100.131V98.8759Z" fill="#ED9F58"/>
</g>
<mask id="mask35_221_886" style="mask-type:luminance" maskUnits="userSpaceOnUse" x="7" y="48" width="270" height="7">
<path d="M7.56909 48.6852H276.722V54.7963H7.56909V48.6852Z" fill="white"/>
</mask>
<g mask="url(#mask35_221_886)">
<mask id="mask36_221_886" style="mask-type:luminance" maskUnits="userSpaceOnUse" x="7" y="48" width="270" height="7">
<path d="M7.68408 48.7162V51.3683C94.3545 54.4255 205.02 54.8583 276.538 54.7565V53.091C227.921 53.0711 179.18 53.064 131.048 52.5213C88.2074 52.0272 47.2865 50.7095 7.68408 48.7162Z" fill="white"/>
</mask>
<g mask="url(#mask36_221_886)">
<path d="M276.24 48.2372L3.86572 48.7226L7.98206 55.3374L280.356 54.852L276.24 48.2372Z" fill="url(#paint10_radial_221_886)"/>
</g>
</g>
<mask id="mask37_221_886" style="mask-type:luminance" maskUnits="userSpaceOnUse" x="82" y="47" width="195" height="4">
<path d="M82.6096 47.0555H276.722V50.1111H82.6096V47.0555Z" fill="white"/>
</mask>
<g mask="url(#mask37_221_886)">
<mask id="mask38_221_886" style="mask-type:luminance" maskUnits="userSpaceOnUse" x="82" y="47" width="195" height="4">
<path d="M276.538 50.0514V47.634L231.756 47.1908H82.7678C147.447 49.2247 221.629 49.8787 276.538 50.0514Z" fill="white"/>
</mask>
<g mask="url(#mask38_221_886)">
<path d="M276.323 46.8463L80.9907 47.194L82.9833 50.3968L278.316 50.0483L276.323 46.8463Z" fill="url(#paint11_radial_221_886)"/>
</g>
</g>
<path d="M13.9919 47.1908C12.3363 47.3762 10.625 47.5696 8.88916 47.7669L17.3817 47.1908H13.9919Z" fill="#ED9F58"/>
<mask id="mask39_221_886" style="mask-type:luminance" maskUnits="userSpaceOnUse" x="7" y="47" width="2" height="2">
<path d="M7.56909 47.6666H8.95286V48.074H7.56909V47.6666Z" fill="white"/>
</mask>
<g mask="url(#mask39_221_886)">
<path d="M7.68408 47.8496V47.9053C8.08705 47.8591 8.48923 47.813 8.88902 47.7668L7.68408 47.8496Z" fill="#ED9F58"/>
</g>
</g>
</g>
<path d="M22.7149 56.8325C22.7149 58.6476 21.1746 60.1411 19.3044 60.1411C17.4151 60.1411 15.8843 58.6476 15.8843 56.8325C15.8843 55.0366 17.4151 53.5621 19.3044 53.5621C21.1746 53.5621 22.7149 55.0358 22.7149 56.8325Z" fill="#FFDE41"/>
<path d="M19.3045 60.6026C17.1633 60.6026 15.4219 58.9117 15.4219 56.8325C15.4219 54.774 17.1633 53.099 19.3045 53.099C21.4402 53.099 23.1769 54.774 23.1769 56.8325C23.1769 58.9117 21.4402 60.6026 19.3045 60.6026ZM19.3045 54.0244C17.6736 54.0244 16.347 55.284 16.347 56.8325C16.347 58.4017 17.6736 59.6772 19.3045 59.6772C20.9299 59.6772 22.2525 58.4009 22.2525 56.8325C22.2525 55.284 20.9299 54.0244 19.3045 54.0244Z" fill="black"/>
<path d="M269.236 56.8325C269.236 58.6476 267.696 60.1411 265.825 60.1411C263.935 60.1411 262.405 58.6476 262.405 56.8325C262.405 55.0366 263.935 53.5621 265.825 53.5621C267.696 53.5621 269.236 55.0358 269.236 56.8325Z" fill="#FFDE41"/>
<path d="M265.825 60.6026C263.684 60.6026 261.943 58.9117 261.943 56.8325C261.943 54.774 263.684 53.099 265.825 53.099C267.961 53.099 269.698 54.774 269.698 56.8325C269.698 58.9117 267.96 60.6026 265.825 60.6026ZM265.825 54.0244C264.194 54.0244 262.868 55.284 262.868 56.8325C262.868 58.4017 264.194 59.6772 265.825 59.6772C267.451 59.6772 268.773 58.4009 268.773 56.8325C268.773 55.284 267.45 54.0244 265.825 54.0244Z" fill="black"/>
<path d="M22.7149 99.8037C22.7149 101.619 21.1746 103.113 19.3044 103.113C17.4151 103.113 15.8843 101.619 15.8843 99.8037C15.8843 98.0078 17.4151 96.515 19.3044 96.515C21.1746 96.5142 22.7149 98.0078 22.7149 99.8037Z" fill="#FFDE41"/>
<path d="M19.3045 103.575C17.1633 103.575 15.4219 101.884 15.4219 99.8037C15.4219 97.7348 17.1633 96.0519 19.3045 96.0519C21.4402 96.0519 23.1769 97.7348 23.1769 99.8037C23.1769 101.884 21.4402 103.575 19.3045 103.575ZM19.3045 96.9773C17.6736 96.9773 16.347 98.2457 16.347 99.8037C16.347 101.373 17.6736 102.649 19.3045 102.649C20.9299 102.649 22.2525 101.373 22.2525 99.8037C22.2525 98.2719 20.9021 96.9773 19.3045 96.9773Z" fill="black"/>
<path d="M269.236 99.8037C269.236 101.619 267.696 103.113 265.825 103.113C263.935 103.113 262.405 101.619 262.405 99.8037C262.405 98.0078 263.935 96.515 265.825 96.515C267.696 96.5142 269.236 98.0078 269.236 99.8037Z" fill="#FFDE41"/>
<path d="M265.825 103.575C263.684 103.575 261.943 101.884 261.943 99.8037C261.943 97.7348 263.684 96.0519 265.825 96.0519C267.961 96.0519 269.698 97.7348 269.698 99.8037C269.698 101.884 267.96 103.575 265.825 103.575ZM265.825 96.9773C264.194 96.9773 262.868 98.2457 262.868 99.8037C262.868 101.373 264.194 102.649 265.825 102.649C267.451 102.649 268.773 101.373 268.773 99.8037C268.773 98.2719 267.423 96.9773 265.825 96.9773Z" fill="black"/>
<mask id="mask40_221_886" style="mask-type:luminance" maskUnits="userSpaceOnUse" x="6" y="46" width="272" height="66">
<path d="M6.7146 46.2686H277.536V111.222H6.7146V46.2686Z" fill="white"/>
</mask>
<g mask="url(#mask40_221_886)">
<path d="M276.538 111.221H7.68444C7.17338 111.221 6.75928 110.807 6.75928 110.295V47.1907C6.75928 46.6791 7.17338 46.2661 7.68444 46.2661H276.539C277.049 46.2661 277.463 46.6799 277.463 47.1907V110.295C277.463 110.807 277.049 111.221 276.538 111.221ZM8.6096 109.37H275.614V48.117H8.6096V109.37Z" fill="black"/>
</g>
</g>
<defs>
<radialGradient id="paint0_radial_221_886" cx="0" cy="0" r="1" gradientTransform="matrix(13.7993 22.1752 -182.202 0.324932 57.1312 64.3801)" gradientUnits="userSpaceOnUse">
<stop stop-color="#E29929"/>
<stop offset="1" stop-color="#E29929"/>
</radialGradient>
<radialGradient id="paint1_radial_221_886" cx="0" cy="0" r="1" gradientTransform="matrix(11.0724 17.7932 -146.197 0.260723 102.304 62.4566)" gradientUnits="userSpaceOnUse">
<stop stop-color="#E29929"/>
<stop offset="1" stop-color="#E29929"/>
</radialGradient>
<radialGradient id="paint2_radial_221_886" cx="0" cy="0" r="1" gradientTransform="matrix(185.732 4.63341 -4.64549 185.395 79.8389 78.6324)" gradientUnits="userSpaceOnUse">
<stop stop-color="#E29929"/>
<stop offset="1" stop-color="#E29929"/>
</radialGradient>
<radialGradient id="paint3_radial_221_886" cx="0" cy="0" r="1" gradientTransform="matrix(185.727 4.63329 -4.64537 185.39 79.8433 78.6332)" gradientUnits="userSpaceOnUse">
<stop stop-color="#E29929"/>
<stop offset="1" stop-color="#E29929"/>
</radialGradient>
<radialGradient id="paint4_radial_221_886" cx="0" cy="0" r="1" gradientTransform="matrix(185.731 4.6334 -4.64548 185.394 79.8387 78.633)" gradientUnits="userSpaceOnUse">
<stop stop-color="#E29929"/>
<stop offset="1" stop-color="#E29929"/>
</radialGradient>
<radialGradient id="paint5_radial_221_886" cx="0" cy="0" r="1" gradientTransform="matrix(185.809 4.63534 -4.64742 185.472 79.839 78.6324)" gradientUnits="userSpaceOnUse">
<stop stop-color="#E29929"/>
<stop offset="1" stop-color="#E29929"/>
</radialGradient>
<radialGradient id="paint6_radial_221_886" cx="0" cy="0" r="1" gradientTransform="matrix(185.731 4.63338 -4.64546 185.394 79.8393 78.6334)" gradientUnits="userSpaceOnUse">
<stop stop-color="#E29929"/>
<stop offset="1" stop-color="#E29929"/>
</radialGradient>
<radialGradient id="paint7_radial_221_886" cx="0" cy="0" r="1" gradientTransform="matrix(40.018 24.5617 -200.291 3.3709 81.3345 87.9692)" gradientUnits="userSpaceOnUse">
<stop stop-color="#E29929"/>
<stop offset="1" stop-color="#E29929"/>
</radialGradient>
<radialGradient id="paint8_radial_221_886" cx="0" cy="0" r="1" gradientTransform="matrix(-40.091 -24.6065 -200.656 3.37705 108.323 104.535)" gradientUnits="userSpaceOnUse">
<stop stop-color="#E29929"/>
<stop offset="1" stop-color="#E29929"/>
</radialGradient>
<radialGradient id="paint9_radial_221_886" cx="0" cy="0" r="1" gradientTransform="matrix(-40.019 -24.5623 -200.296 3.37099 108.12 104.41)" gradientUnits="userSpaceOnUse">
<stop stop-color="#E29929"/>
<stop offset="1" stop-color="#E29929"/>
</radialGradient>
<radialGradient id="paint10_radial_221_886" cx="0" cy="0" r="1" gradientTransform="matrix(13.7953 22.1688 -182.149 0.324839 109.268 45.2028)" gradientUnits="userSpaceOnUse">
<stop stop-color="#E29929"/>
<stop offset="1" stop-color="#E29929"/>
</radialGradient>
<radialGradient id="paint11_radial_221_886" cx="0" cy="0" r="1" gradientTransform="matrix(11.0694 17.7883 -146.157 0.260652 154.433 43.2804)" gradientUnits="userSpaceOnUse">
<stop stop-color="#E29929"/>
<stop offset="1" stop-color="#E29929"/>
</radialGradient>
<clipPath id="clip0_221_886">
<rect width="293" height="165" fill="white"/>
</clipPath>
</defs>
</svg>
