<svg width="354" height="354" viewBox="0 0 354 354" fill="none" xmlns="http://www.w3.org/2000/svg">
<mask id="mask0_103_817" style="mask-type:luminance" maskUnits="userSpaceOnUse" x="10" y="90" width="330" height="182">
<path d="M10.7969 90.624H339.84V271.511H10.7969V90.624Z" fill="white"/>
</mask>
<g mask="url(#mask0_103_817)">
<path d="M299.491 91.0259L50.5074 97.7187C28.611 97.7187 10.8594 115.489 10.8594 137.407V184.983C10.8594 206.902 28.611 224.668 50.5074 224.668H75.4312C72.1751 240.513 62.8162 259.309 38.464 271.518C38.464 271.518 89.5764 266.127 117.045 224.668H292.806C314.702 224.668 332.454 206.898 332.454 184.983L339.139 130.714C339.139 108.796 321.387 91.0259 299.491 91.0259Z" fill="black"/>
</g>
<path d="M302.888 84.0454L62.127 90.517C40.9534 90.517 23.7881 107.697 23.7881 128.893V174.894C23.7881 196.09 40.9534 213.27 62.127 213.27H86.2285C83.0831 228.592 74.0303 246.767 50.4856 258.575C50.4856 258.575 99.9055 253.361 126.467 213.27H296.423C317.597 213.27 334.762 196.09 334.762 174.894L341.227 122.421C341.227 101.225 324.061 84.0454 302.888 84.0454Z" fill="white"/>
<mask id="mask1_103_817" style="mask-type:luminance" maskUnits="userSpaceOnUse" x="21" y="82" width="322" height="180">
<path d="M21.7119 82.4746H342.849V261.488H21.7119V82.4746Z" fill="white"/>
</mask>
<g mask="url(#mask1_103_817)">
<path d="M42.0892 261.038L49.785 257.178C68.2852 247.9 79.8824 233.662 84.2852 214.838H62.1307C40.1274 214.838 22.2246 196.92 22.2246 174.895V128.893C22.2246 106.875 40.1127 88.9611 62.1086 88.9501L302.866 82.4785H302.888C324.891 82.4785 342.794 100.396 342.794 122.422V122.517L342.779 122.61L336.326 174.994C336.274 196.972 318.394 214.838 296.423 214.838H127.304C121.212 223.846 113.483 231.815 104.316 238.526C96.808 244.024 88.3231 248.693 79.1006 252.41C63.4029 258.73 51.1641 260.076 50.6515 260.131L42.0892 261.035V261.038ZM62.1307 92.0845C41.8532 92.0845 25.3553 108.597 25.3553 128.893V174.898C25.3553 195.194 41.8532 211.707 62.1307 211.707H88.146L87.7626 213.588C85.8967 222.677 82.3714 230.941 77.2864 238.146C72.5664 244.835 66.493 250.614 59.166 255.404C64.0962 254.272 70.7152 252.421 78.0239 249.471C92.0917 243.792 111.687 232.752 125.165 212.411L125.629 211.707H296.423C316.701 211.707 333.199 195.194 333.199 174.898V174.802L333.21 174.707L339.663 122.326C339.611 102.081 323.147 85.624 302.91 85.6129L62.1529 92.0845H62.1307Z" fill="black"/>
</g>
<path d="M120.651 210.895C112.815 224.982 99.3117 235.863 84.3515 241.605L84.2593 241.417C91.0185 237.165 97.5933 232.773 103.703 227.648C109.825 222.559 115.315 216.873 120.478 210.777L120.651 210.895Z" fill="black"/>
<path d="M243.04 207.116C229.167 208.219 215.251 208.307 201.345 207.927C196.713 207.776 192.078 207.555 187.447 207.116V206.906C201.319 205.704 215.236 205.744 229.141 206.124C233.773 206.294 238.408 206.497 243.04 206.906V207.116Z" fill="black"/>
<path d="M328.424 178.353C328.951 186.13 324.744 194.317 318.242 198.561L318.099 198.41C321.558 193.885 324.478 189.106 326.421 183.759C327.081 182 327.635 180.197 328.217 178.335L328.424 178.353Z" fill="black"/>
<path d="M285 90.6867C290.947 89.9049 296.925 89.5583 302.91 89.3223C311.295 89.2228 319.795 92.8218 325.215 99.238L325.072 99.3892C319.231 94.7909 312.243 91.8372 304.849 91.3763C304.267 91.3246 303.522 91.3246 302.936 91.2951C300.517 91.3357 298.053 91.3505 295.638 91.321C292.098 91.2767 288.554 91.1771 285.003 90.8932L285 90.683V90.6867Z" fill="black"/>
<path d="M60.0545 96.7414C69.6162 95.7089 79.2073 95.4507 88.8133 95.4434C92.014 95.4544 95.2111 95.5134 98.4155 95.7015L98.4192 95.9117C88.8649 96.911 79.259 97.2023 69.6567 97.2023C66.4597 97.1949 63.2515 97.1249 60.0655 96.9515L60.0508 96.7414H60.0545Z" fill="black"/>
<path d="M31.3255 184.246C29.8063 180.503 29.4117 176.3 29.408 172.262C29.3601 169.909 29.3232 167.343 29.3195 165.008C29.2974 158.581 29.408 152.069 29.9427 145.66H30.1529C30.8166 153.688 30.8424 161.797 30.7318 169.843C30.7171 171.045 30.6654 173.479 30.6249 174.677C30.5106 177.856 30.8277 181.038 31.5246 184.187L31.3255 184.246Z" fill="black"/>
<path d="M65.9238 126.96V126.456H71.0358V126.96L70.0458 127.086C69.8538 127.11 69.7398 127.164 69.7038 127.248C69.6678 127.32 69.6498 127.56 69.6498 127.968V132H69.1638C68.8398 131.664 68.4798 131.382 68.0838 131.154C67.7598 131.442 67.3758 131.688 66.9318 131.892C66.4878 132.084 65.9478 132.18 65.3118 132.18C64.3278 132.18 63.4818 131.934 62.7738 131.442C62.0778 130.938 61.5438 130.248 61.1718 129.372C60.7998 128.484 60.6138 127.476 60.6138 126.348V125.214C60.6138 124.122 60.7998 123.156 61.1718 122.316C61.5438 121.464 62.0898 120.798 62.8098 120.318C63.5298 119.826 64.4118 119.58 65.4558 119.58C66.4398 119.58 67.2498 119.76 67.8858 120.12C68.5338 120.468 69.0078 120.936 69.3078 121.524C69.6078 122.1 69.7218 122.73 69.6498 123.414L67.5438 123.936C67.6758 122.736 67.5438 121.818 67.1478 121.182C66.7518 120.534 66.1638 120.21 65.3838 120.21C63.7398 120.21 62.9178 121.668 62.9178 124.584V127.158C62.9178 130.086 63.7878 131.55 65.5278 131.55C65.9118 131.55 66.2958 131.472 66.6798 131.316C67.0758 131.16 67.4058 130.932 67.6698 130.632V127.968C67.6698 127.56 67.6518 127.314 67.6158 127.23C67.5798 127.146 67.4658 127.098 67.2738 127.086L65.9238 126.96ZM71.7753 123.378V122.874H75.1233V124.35C75.8553 123.246 76.7253 122.694 77.7333 122.694C78.1053 122.694 78.4653 122.814 78.8133 123.054C79.1613 123.282 79.4493 123.714 79.6773 124.35L78.0753 125.214C77.9073 124.722 77.7093 124.392 77.4813 124.224C77.2653 124.044 77.0313 123.954 76.7793 123.954C76.5153 123.954 76.2573 124.038 76.0053 124.206C75.7533 124.374 75.4953 124.686 75.2313 125.142V130.488C75.2313 130.896 75.2493 131.142 75.2853 131.226C75.3213 131.298 75.4353 131.346 75.6273 131.37L76.9773 131.496V132H71.7753V131.496L72.7653 131.37C72.9573 131.346 73.0713 131.298 73.1073 131.226C73.1433 131.142 73.1613 130.896 73.1613 130.488V124.386C73.1613 123.978 73.1433 123.738 73.1073 123.666C73.0713 123.582 72.9573 123.528 72.7653 123.504L71.7753 123.378ZM87.9441 129.858C87.7281 130.698 87.3261 131.298 86.7381 131.658C86.1501 132.006 85.4661 132.18 84.6861 132.18C83.2461 132.18 82.1661 131.766 81.4461 130.938C80.7261 130.098 80.3661 128.988 80.3661 127.608V127.248C80.3661 125.868 80.7021 124.764 81.3741 123.936C82.0581 123.108 83.0421 122.694 84.3261 122.694C85.0461 122.694 85.6821 122.838 86.2341 123.126C86.7981 123.402 87.2361 123.804 87.5481 124.332C87.8721 124.86 88.0341 125.502 88.0341 126.258C88.0341 126.438 88.0221 126.63 87.9981 126.834C87.9861 127.038 87.9561 127.242 87.9081 127.446H82.5801V127.968C82.5801 129.24 82.7601 130.158 83.1201 130.722C83.4801 131.274 84.0621 131.55 84.8661 131.55C85.3821 131.55 85.8201 131.4 86.1801 131.1C86.5401 130.788 86.7441 130.266 86.7921 129.534L87.9441 129.858ZM84.3261 123.324C83.7381 123.324 83.3001 123.594 83.0121 124.134C82.7241 124.674 82.5801 125.568 82.5801 126.816H85.8381C85.8861 126.576 85.9161 126.354 85.9281 126.15C85.9521 125.934 85.9641 125.736 85.9641 125.556C85.9641 124.788 85.8141 124.224 85.5141 123.864C85.2141 123.504 84.8181 123.324 84.3261 123.324ZM98.5335 131.55C98.3415 131.73 98.1075 131.88 97.8315 132C97.5675 132.12 97.2435 132.18 96.8595 132.18C96.3675 132.18 95.9535 132.072 95.6175 131.856C95.2935 131.64 95.0775 131.334 94.9695 130.938C94.5735 131.37 94.1355 131.688 93.6555 131.892C93.1875 132.084 92.7075 132.18 92.2155 132.18C91.3875 132.18 90.7695 131.952 90.3615 131.496C89.9535 131.028 89.7495 130.446 89.7495 129.75C89.7495 129.042 90.0075 128.472 90.5235 128.04C91.0395 127.596 91.9515 127.374 93.2595 127.374H94.8975V125.916C94.8975 124.92 94.7655 124.242 94.5015 123.882C94.2495 123.51 93.8955 123.324 93.4395 123.324C93.1395 123.324 92.8635 123.402 92.6115 123.558C92.3595 123.702 92.1795 123.978 92.0715 124.386C91.9755 124.782 91.9935 125.358 92.1255 126.114L90.1455 125.826C90.0495 125.274 90.1095 124.764 90.3255 124.296C90.5535 123.816 90.9315 123.432 91.4595 123.144C91.9875 122.844 92.6595 122.694 93.4755 122.694C94.3995 122.694 95.1135 122.844 95.6175 123.144C96.1215 123.444 96.4695 123.84 96.6615 124.332C96.8655 124.824 96.9675 125.352 96.9675 125.916V130.074C96.9675 130.686 97.0215 131.07 97.1295 131.226C97.2375 131.382 97.3575 131.46 97.4895 131.46C97.7055 131.46 97.9455 131.334 98.2095 131.082L98.5335 131.55ZM93.0075 131.226C93.3195 131.226 93.6255 131.148 93.9255 130.992C94.2375 130.824 94.5615 130.518 94.8975 130.074V128.004H93.5475C92.9595 128.004 92.5335 128.142 92.2695 128.418C92.0055 128.694 91.8735 129.126 91.8735 129.714C91.8735 130.194 91.9695 130.566 92.1615 130.83C92.3535 131.094 92.6355 131.226 93.0075 131.226ZM105.447 130.128C105.291 130.86 104.991 131.388 104.547 131.712C104.115 132.024 103.587 132.18 102.963 132.18C102.327 132.18 101.805 132.042 101.397 131.766C100.989 131.478 100.689 131.1 100.497 130.632C100.305 130.164 100.209 129.666 100.209 129.138V124.386C100.209 123.978 100.191 123.738 100.155 123.666C100.119 123.582 100.005 123.528 99.813 123.504L98.823 123.378V122.874H100.209V120.786L102.279 120.372V122.874H105.159V123.504H102.279V129.498C102.279 130.266 102.375 130.8 102.567 131.1C102.759 131.388 103.005 131.532 103.305 131.532C103.617 131.532 103.857 131.412 104.025 131.172C104.205 130.932 104.319 130.494 104.367 129.858L105.447 130.128ZM122.622 124.386L120.66 132H119.022L116.862 124.764L114.684 132H113.19L111.246 124.386C111.174 124.11 111.114 123.918 111.066 123.81C111.03 123.69 110.982 123.612 110.922 123.576C110.862 123.54 110.772 123.516 110.652 123.504L109.662 123.378V122.874H114.45V123.378L113.46 123.504C113.268 123.528 113.16 123.582 113.136 123.666C113.112 123.738 113.154 123.978 113.262 124.386L114.666 129.804L116.736 122.874H118.32L120.462 130.11L121.92 124.386C122.028 123.978 122.07 123.738 122.046 123.666C122.022 123.582 121.914 123.528 121.722 123.504L120.732 123.378V122.874H124.206V123.378L123.216 123.504C123.096 123.516 123.006 123.54 122.946 123.576C122.886 123.612 122.832 123.69 122.784 123.81C122.748 123.918 122.694 124.11 122.622 124.386ZM132.836 127.248V127.608C132.836 128.988 132.476 130.098 131.756 130.938C131.048 131.766 130.034 132.18 128.714 132.18C127.394 132.18 126.374 131.766 125.654 130.938C124.946 130.098 124.592 128.988 124.592 127.608V127.248C124.592 125.868 124.946 124.764 125.654 123.936C126.374 123.108 127.394 122.694 128.714 122.694C130.034 122.694 131.048 123.108 131.756 123.936C132.476 124.764 132.836 125.868 132.836 127.248ZM130.622 126.888C130.622 125.604 130.46 124.692 130.136 124.152C129.812 123.6 129.338 123.324 128.714 123.324C128.102 123.324 127.628 123.6 127.292 124.152C126.968 124.692 126.806 125.604 126.806 126.888V127.968C126.806 129.24 126.968 130.158 127.292 130.722C127.628 131.274 128.102 131.55 128.714 131.55C129.338 131.55 129.812 131.274 130.136 130.722C130.46 130.158 130.622 129.24 130.622 127.968V126.888ZM134.178 123.378V122.874H137.526V124.35C138.258 123.246 139.128 122.694 140.136 122.694C140.508 122.694 140.868 122.814 141.216 123.054C141.564 123.282 141.852 123.714 142.08 124.35L140.478 125.214C140.31 124.722 140.112 124.392 139.884 124.224C139.668 124.044 139.434 123.954 139.182 123.954C138.918 123.954 138.66 124.038 138.408 124.206C138.156 124.374 137.898 124.686 137.634 125.142V130.488C137.634 130.896 137.652 131.142 137.688 131.226C137.724 131.298 137.838 131.346 138.03 131.37L139.38 131.496V132H134.178V131.496L135.168 131.37C135.36 131.346 135.474 131.298 135.51 131.226C135.546 131.142 135.564 130.896 135.564 130.488V124.386C135.564 123.978 135.546 123.738 135.51 123.666C135.474 123.582 135.36 123.528 135.168 123.504L134.178 123.378ZM142.015 119.184V118.68H145.471V127.41L148.639 124.386C149.059 123.99 149.281 123.75 149.305 123.666C149.341 123.582 149.257 123.528 149.053 123.504L148.063 123.378V122.874H151.753V123.378L150.763 123.504C150.655 123.516 150.565 123.54 150.493 123.576C150.421 123.612 150.319 123.69 150.187 123.81C150.055 123.918 149.845 124.11 149.557 124.386L147.829 126.042L150.385 130.488C150.553 130.764 150.679 130.962 150.763 131.082C150.847 131.19 150.925 131.262 150.997 131.298C151.081 131.322 151.183 131.346 151.303 131.37L152.293 131.496V132H148.855L146.353 127.446L145.471 128.292V130.488C145.471 130.896 145.489 131.142 145.525 131.226C145.561 131.298 145.675 131.346 145.867 131.37L146.857 131.496V132H142.015V131.496L143.005 131.37C143.197 131.346 143.311 131.298 143.347 131.226C143.383 131.142 143.401 130.896 143.401 130.488V120.192C143.401 119.784 143.383 119.544 143.347 119.472C143.311 119.388 143.197 119.334 143.005 119.31L142.015 119.184ZM155.837 131.208C155.837 131.724 155.651 132.342 155.279 133.062C154.907 133.782 154.385 134.544 153.713 135.348L153.299 134.988C153.791 134.388 154.139 133.86 154.343 133.404C154.547 132.96 154.655 132.552 154.667 132.18H154.613C154.253 132.18 153.959 132.072 153.731 131.856C153.515 131.628 153.407 131.328 153.407 130.956C153.407 130.596 153.515 130.308 153.731 130.092C153.959 129.864 154.253 129.75 154.613 129.75C154.961 129.75 155.249 129.876 155.477 130.128C155.717 130.38 155.837 130.74 155.837 131.208ZM170.102 128.904H170.606V132H161.696V131.496L162.686 131.37C162.878 131.346 162.992 131.298 163.028 131.226C163.064 131.142 163.082 130.896 163.082 130.488V121.272C163.082 120.864 163.064 120.624 163.028 120.552C162.992 120.468 162.878 120.414 162.686 120.39L161.696 120.264V119.76H170.426V122.856H169.922L169.346 120.858C169.31 120.714 169.268 120.612 169.22 120.552C169.184 120.48 169.106 120.438 168.986 120.426C168.866 120.402 168.662 120.39 168.374 120.39H165.242V125.502H167.294C167.582 125.502 167.786 125.496 167.906 125.484C168.026 125.46 168.104 125.418 168.14 125.358C168.188 125.286 168.23 125.178 168.266 125.034L168.662 123.576H169.166V128.058H168.662L168.266 126.6C168.23 126.456 168.188 126.354 168.14 126.294C168.104 126.222 168.026 126.18 167.906 126.168C167.786 126.144 167.582 126.132 167.294 126.132H165.242V131.37H168.554C168.842 131.37 169.046 131.364 169.166 131.352C169.286 131.328 169.364 131.286 169.4 131.226C169.448 131.154 169.49 131.046 169.526 130.902L170.102 128.904ZM178.104 132.18C177 132.18 176.064 131.946 175.296 131.478C174.528 130.998 173.946 130.326 173.55 129.462C173.154 128.598 172.956 127.59 172.956 126.438V125.304C172.956 124.152 173.13 123.15 173.478 122.298C173.838 121.434 174.372 120.768 175.08 120.3C175.788 119.82 176.676 119.58 177.744 119.58C178.656 119.58 179.418 119.76 180.03 120.12C180.642 120.468 181.092 120.936 181.38 121.524C181.68 122.1 181.806 122.73 181.758 123.414L179.652 123.936C179.772 122.736 179.646 121.818 179.274 121.182C178.914 120.534 178.374 120.21 177.654 120.21C176.886 120.21 176.292 120.534 175.872 121.182C175.464 121.83 175.26 122.904 175.26 124.404V127.338C175.26 128.826 175.494 129.9 175.962 130.56C176.43 131.22 177.144 131.55 178.104 131.55C178.5 131.55 178.866 131.478 179.202 131.334C179.55 131.19 179.838 130.944 180.066 130.596C180.306 130.236 180.456 129.732 180.516 129.084L181.812 129.426C181.644 130.098 181.374 130.638 181.002 131.046C180.63 131.454 180.192 131.748 179.688 131.928C179.196 132.096 178.668 132.18 178.104 132.18ZM193.452 125.304V126.438C193.452 128.286 193.038 129.708 192.21 130.704C191.394 131.688 190.182 132.18 188.574 132.18C186.966 132.18 185.748 131.688 184.92 130.704C184.104 129.708 183.696 128.286 183.696 126.438V125.304C183.696 123.456 184.104 122.04 184.92 121.056C185.748 120.072 186.966 119.58 188.574 119.58C190.182 119.58 191.394 120.072 192.21 121.056C193.038 122.04 193.452 123.456 193.452 125.304ZM191.148 124.404C191.148 123.348 191.058 122.52 190.878 121.92C190.698 121.308 190.416 120.87 190.032 120.606C189.66 120.342 189.174 120.21 188.574 120.21C187.986 120.21 187.5 120.342 187.116 120.606C186.732 120.87 186.45 121.308 186.27 121.92C186.09 122.52 186 123.348 186 124.404V127.338C186 128.382 186.09 129.21 186.27 129.822C186.45 130.434 186.732 130.878 187.116 131.154C187.5 131.418 187.986 131.55 188.574 131.55C189.174 131.55 189.66 131.418 190.032 131.154C190.416 130.878 190.698 130.434 190.878 129.822C191.058 129.21 191.148 128.382 191.148 127.338V124.404ZM195.717 126.294V125.664H200.469V126.294H195.717ZM214.145 131.496V132H209.213V131.496L210.203 131.37C210.395 131.346 210.509 131.298 210.545 131.226C210.581 131.142 210.599 130.896 210.599 130.488V126.132H205.865V130.488C205.865 130.896 205.883 131.142 205.919 131.226C205.955 131.298 206.069 131.346 206.261 131.37L207.251 131.496V132H202.319V131.496L203.309 131.37C203.501 131.346 203.615 131.298 203.651 131.226C203.687 131.142 203.705 130.896 203.705 130.488V121.272C203.705 120.864 203.687 120.624 203.651 120.552C203.615 120.468 203.501 120.414 203.309 120.39L202.319 120.264V119.76H207.251V120.264L206.261 120.39C206.069 120.414 205.955 120.468 205.919 120.552C205.883 120.624 205.865 120.864 205.865 121.272V125.502H210.599V121.272C210.599 120.864 210.581 120.624 210.545 120.552C210.509 120.468 210.395 120.414 210.203 120.39L209.213 120.264V119.76H214.145V120.264L213.155 120.39C212.963 120.414 212.849 120.468 212.813 120.552C212.777 120.624 212.759 120.864 212.759 121.272V130.488C212.759 130.896 212.777 131.142 212.813 131.226C212.849 131.298 212.963 131.346 213.155 131.37L214.145 131.496ZM224.102 128.904H224.606V132H215.696V131.496L216.686 131.37C216.878 131.346 216.992 131.298 217.028 131.226C217.064 131.142 217.082 130.896 217.082 130.488V121.272C217.082 120.864 217.064 120.624 217.028 120.552C216.992 120.468 216.878 120.414 216.686 120.39L215.696 120.264V119.76H224.426V122.856H223.922L223.346 120.858C223.31 120.714 223.268 120.612 223.22 120.552C223.184 120.48 223.106 120.438 222.986 120.426C222.866 120.402 222.662 120.39 222.374 120.39H219.242V125.502H221.294C221.582 125.502 221.786 125.496 221.906 125.484C222.026 125.46 222.104 125.418 222.14 125.358C222.188 125.286 222.23 125.178 222.266 125.034L222.662 123.576H223.166V128.058H222.662L222.266 126.6C222.23 126.456 222.188 126.354 222.14 126.294C222.104 126.222 222.026 126.18 221.906 126.168C221.786 126.144 221.582 126.132 221.294 126.132H219.242V131.37H222.554C222.842 131.37 223.046 131.364 223.166 131.352C223.286 131.328 223.364 131.286 223.4 131.226C223.448 131.154 223.49 131.046 223.526 130.902L224.102 128.904ZM226.542 120.264V119.76H231.978C233.238 119.76 234.21 120.042 234.894 120.606C235.578 121.17 235.92 121.926 235.92 122.874V123.288C235.92 124.008 235.722 124.62 235.326 125.124C234.93 125.628 234.36 125.988 233.616 126.204L235.866 130.488C236.01 130.752 236.118 130.944 236.19 131.064C236.262 131.184 236.328 131.262 236.388 131.298C236.46 131.322 236.556 131.346 236.676 131.37L237.486 131.496V132H234.12L231.402 126.42H230.088V130.488C230.088 130.896 230.106 131.142 230.142 131.226C230.178 131.298 230.292 131.346 230.484 131.37L231.474 131.496V132H226.542V131.496L227.532 131.37C227.724 131.346 227.838 131.298 227.874 131.226C227.91 131.142 227.928 130.896 227.928 130.488V121.272C227.928 120.864 227.91 120.624 227.874 120.552C227.838 120.468 227.724 120.414 227.532 120.39L226.542 120.264ZM231.978 120.39H230.088V125.79H231.978C232.506 125.79 232.908 125.628 233.184 125.304C233.472 124.968 233.616 124.356 233.616 123.468V122.694C233.616 121.806 233.472 121.2 233.184 120.876C232.908 120.552 232.506 120.39 231.978 120.39ZM248.436 125.304V126.438C248.436 128.286 248.022 129.708 247.194 130.704C246.378 131.688 245.166 132.18 243.558 132.18C241.95 132.18 240.732 131.688 239.904 130.704C239.088 129.708 238.68 128.286 238.68 126.438V125.304C238.68 123.456 239.088 122.04 239.904 121.056C240.732 120.072 241.95 119.58 243.558 119.58C245.166 119.58 246.378 120.072 247.194 121.056C248.022 122.04 248.436 123.456 248.436 125.304ZM246.132 124.404C246.132 123.348 246.042 122.52 245.862 121.92C245.682 121.308 245.4 120.87 245.016 120.606C244.644 120.342 244.158 120.21 243.558 120.21C242.97 120.21 242.484 120.342 242.1 120.606C241.716 120.87 241.434 121.308 241.254 121.92C241.074 122.52 240.984 123.348 240.984 124.404V127.338C240.984 128.382 241.074 129.21 241.254 129.822C241.434 130.434 241.716 130.878 242.1 131.154C242.484 131.418 242.97 131.55 243.558 131.55C244.158 131.55 244.644 131.418 245.016 131.154C245.4 130.878 245.682 130.434 245.862 129.822C246.042 129.21 246.132 128.382 246.132 127.338V124.404ZM252.231 128.364H251.601C251.601 127.548 251.577 126.834 251.529 126.222C251.481 125.61 251.421 125.058 251.349 124.566C251.277 124.062 251.205 123.576 251.133 123.108C251.061 122.64 251.001 122.142 250.953 121.614C250.905 121.074 250.881 120.456 250.881 119.76H252.951C252.951 120.456 252.927 121.074 252.879 121.614C252.831 122.142 252.771 122.64 252.699 123.108C252.627 123.576 252.555 124.062 252.483 124.566C252.411 125.058 252.351 125.61 252.303 126.222C252.255 126.834 252.231 127.548 252.231 128.364ZM251.907 132.18C251.535 132.18 251.229 132.066 250.989 131.838C250.761 131.598 250.647 131.286 250.647 130.902C250.647 130.518 250.761 130.212 250.989 129.984C251.229 129.756 251.535 129.642 251.907 129.642C252.279 129.642 252.585 129.756 252.825 129.984C253.065 130.212 253.185 130.518 253.185 130.902C253.185 131.286 253.065 131.598 252.825 131.838C252.585 132.066 252.279 132.18 251.907 132.18ZM266.262 131.496V132H261.33V131.496L262.32 131.37C262.512 131.346 262.626 131.298 262.662 131.226C262.698 131.142 262.716 130.896 262.716 130.488V126.762L259.854 121.272C259.71 120.996 259.602 120.804 259.53 120.696C259.458 120.576 259.386 120.498 259.314 120.462C259.254 120.426 259.164 120.402 259.044 120.39L258.054 120.264V119.76H263.184V120.264L262.194 120.39C262.014 120.414 261.924 120.468 261.924 120.552C261.924 120.624 262.02 120.864 262.212 121.272L264.534 125.916L266.946 121.272C267.15 120.876 267.246 120.636 267.234 120.552C267.234 120.468 267.144 120.414 266.964 120.39L265.974 120.264V119.76H269.484V120.264L268.494 120.39C268.374 120.402 268.278 120.426 268.206 120.462C268.146 120.498 268.08 120.576 268.008 120.696C267.948 120.804 267.846 120.996 267.702 121.272L264.876 126.726V130.488C264.876 130.896 264.894 131.142 264.93 131.226C264.966 131.298 265.08 131.346 265.272 131.37L266.262 131.496ZM277.416 127.248V127.608C277.416 128.988 277.056 130.098 276.336 130.938C275.628 131.766 274.614 132.18 273.294 132.18C271.974 132.18 270.954 131.766 270.234 130.938C269.526 130.098 269.172 128.988 269.172 127.608V127.248C269.172 125.868 269.526 124.764 270.234 123.936C270.954 123.108 271.974 122.694 273.294 122.694C274.614 122.694 275.628 123.108 276.336 123.936C277.056 124.764 277.416 125.868 277.416 127.248ZM275.202 126.888C275.202 125.604 275.04 124.692 274.716 124.152C274.392 123.6 273.918 123.324 273.294 123.324C272.682 123.324 272.208 123.6 271.872 124.152C271.548 124.692 271.386 125.604 271.386 126.888V127.968C271.386 129.24 271.548 130.158 271.872 130.722C272.208 131.274 272.682 131.55 273.294 131.55C273.918 131.55 274.392 131.274 274.716 130.722C275.04 130.158 275.202 129.24 275.202 127.968V126.888ZM288.964 131.496V132H285.616V130.416C285.28 131.028 284.848 131.478 284.32 131.766C283.792 132.042 283.258 132.18 282.718 132.18C281.866 132.18 281.188 131.898 280.684 131.334C280.18 130.758 279.928 129.96 279.928 128.94V124.386C279.928 123.978 279.91 123.738 279.874 123.666C279.838 123.582 279.724 123.528 279.532 123.504L278.542 123.378V122.874H281.998V128.922C281.998 129.75 282.112 130.356 282.34 130.74C282.58 131.112 282.922 131.298 283.366 131.298C283.558 131.298 283.78 131.25 284.032 131.154C284.296 131.046 284.56 130.86 284.824 130.596C285.088 130.32 285.316 129.93 285.508 129.426V124.386C285.508 123.978 285.49 123.732 285.454 123.648C285.418 123.564 285.304 123.516 285.112 123.504L283.762 123.378V122.874H287.578V130.488C287.578 130.896 287.596 131.142 287.632 131.226C287.668 131.298 287.782 131.346 287.974 131.37L288.964 131.496ZM289.674 123.378V122.874H293.022V124.35C293.754 123.246 294.624 122.694 295.632 122.694C296.004 122.694 296.364 122.814 296.712 123.054C297.06 123.282 297.348 123.714 297.576 124.35L295.974 125.214C295.806 124.722 295.608 124.392 295.38 124.224C295.164 124.044 294.93 123.954 294.678 123.954C294.414 123.954 294.156 124.038 293.904 124.206C293.652 124.374 293.394 124.686 293.13 125.142V130.488C293.13 130.896 293.148 131.142 293.184 131.226C293.22 131.298 293.334 131.346 293.526 131.37L294.876 131.496V132H289.674V131.496L290.664 131.37C290.856 131.346 290.97 131.298 291.006 131.226C291.042 131.142 291.06 130.896 291.06 130.488V124.386C291.06 123.978 291.042 123.738 291.006 123.666C290.97 123.582 290.856 123.528 290.664 123.504L289.674 123.378ZM47.0948 145.324C46.5188 145.324 46.0868 145.6 45.7988 146.152C45.5228 146.692 45.3848 147.604 45.3848 148.888V149.968C45.3848 151.24 45.5468 152.158 45.8708 152.722C46.1948 153.274 46.7228 153.55 47.4548 153.55C47.9948 153.55 48.4328 153.4 48.7688 153.1C49.1168 152.788 49.3148 152.266 49.3628 151.534L50.5148 151.858C50.2988 152.698 49.9028 153.298 49.3268 153.658C48.7628 154.006 48.0968 154.18 47.3288 154.18C45.9488 154.18 44.9108 153.766 44.2148 152.938C43.5188 152.098 43.1708 150.988 43.1708 149.608V149.248C43.1708 147.868 43.5068 146.764 44.1788 145.936C44.8508 145.108 45.8228 144.694 47.0948 144.694C47.9348 144.694 48.6188 144.862 49.1468 145.198C49.6868 145.522 50.0648 145.954 50.2808 146.494C50.5088 147.022 50.5688 147.592 50.4608 148.204L48.4808 148.492C48.6128 147.484 48.5588 146.704 48.3188 146.152C48.0788 145.6 47.6708 145.324 47.0948 145.324ZM60.4495 149.248V149.608C60.4495 150.988 60.0895 152.098 59.3695 152.938C58.6615 153.766 57.6475 154.18 56.3275 154.18C55.0075 154.18 53.9875 153.766 53.2675 152.938C52.5595 152.098 52.2055 150.988 52.2055 149.608V149.248C52.2055 147.868 52.5595 146.764 53.2675 145.936C53.9875 145.108 55.0075 144.694 56.3275 144.694C57.6475 144.694 58.6615 145.108 59.3695 145.936C60.0895 146.764 60.4495 147.868 60.4495 149.248ZM58.2355 148.888C58.2355 147.604 58.0735 146.692 57.7495 146.152C57.4255 145.6 56.9515 145.324 56.3275 145.324C55.7155 145.324 55.2415 145.6 54.9055 146.152C54.5815 146.692 54.4195 147.604 54.4195 148.888V149.968C54.4195 151.24 54.5815 152.158 54.9055 152.722C55.2415 153.274 55.7155 153.55 56.3275 153.55C56.9515 153.55 57.4255 153.274 57.7495 152.722C58.0735 152.158 58.2355 151.24 58.2355 149.968V148.888ZM61.791 145.378V144.874H65.139V146.35C65.871 145.246 66.741 144.694 67.749 144.694C68.121 144.694 68.481 144.814 68.829 145.054C69.177 145.282 69.465 145.714 69.693 146.35L68.091 147.214C67.923 146.722 67.725 146.392 67.497 146.224C67.281 146.044 67.047 145.954 66.795 145.954C66.531 145.954 66.273 146.038 66.021 146.206C65.769 146.374 65.511 146.686 65.247 147.142V152.488C65.247 152.896 65.265 153.142 65.301 153.226C65.337 153.298 65.451 153.346 65.643 153.37L66.993 153.496V154H61.791V153.496L62.781 153.37C62.973 153.346 63.087 153.298 63.123 153.226C63.159 153.142 63.177 152.896 63.177 152.488V146.386C63.177 145.978 63.159 145.738 63.123 145.666C63.087 145.582 62.973 145.528 62.781 145.504L61.791 145.378ZM70.1054 145.378V144.874H73.4534V146.35C74.1854 145.246 75.0554 144.694 76.0634 144.694C76.4354 144.694 76.7954 144.814 77.1434 145.054C77.4914 145.282 77.7794 145.714 78.0074 146.35L76.4054 147.214C76.2374 146.722 76.0394 146.392 75.8114 146.224C75.5954 146.044 75.3614 145.954 75.1094 145.954C74.8454 145.954 74.5874 146.038 74.3354 146.206C74.0834 146.374 73.8254 146.686 73.5614 147.142V152.488C73.5614 152.896 73.5794 153.142 73.6154 153.226C73.6514 153.298 73.7654 153.346 73.9574 153.37L75.3074 153.496V154H70.1054V153.496L71.0954 153.37C71.2874 153.346 71.4014 153.298 71.4374 153.226C71.4734 153.142 71.4914 152.896 71.4914 152.488V146.386C71.4914 145.978 71.4734 145.738 71.4374 145.666C71.4014 145.582 71.2874 145.528 71.0954 145.504L70.1054 145.378ZM86.2742 151.858C86.0582 152.698 85.6562 153.298 85.0682 153.658C84.4802 154.006 83.7962 154.18 83.0162 154.18C81.5762 154.18 80.4962 153.766 79.7762 152.938C79.0562 152.098 78.6962 150.988 78.6962 149.608V149.248C78.6962 147.868 79.0322 146.764 79.7042 145.936C80.3882 145.108 81.3722 144.694 82.6562 144.694C83.3762 144.694 84.0122 144.838 84.5642 145.126C85.1282 145.402 85.5662 145.804 85.8782 146.332C86.2022 146.86 86.3642 147.502 86.3642 148.258C86.3642 148.438 86.3522 148.63 86.3282 148.834C86.3162 149.038 86.2862 149.242 86.2382 149.446H80.9102V149.968C80.9102 151.24 81.0902 152.158 81.4502 152.722C81.8102 153.274 82.3922 153.55 83.1962 153.55C83.7122 153.55 84.1502 153.4 84.5102 153.1C84.8702 152.788 85.0742 152.266 85.1222 151.534L86.2742 151.858ZM82.6562 145.324C82.0682 145.324 81.6302 145.594 81.3422 146.134C81.0542 146.674 80.9102 147.568 80.9102 148.816H84.1682C84.2162 148.576 84.2462 148.354 84.2582 148.15C84.2822 147.934 84.2942 147.736 84.2942 147.556C84.2942 146.788 84.1442 146.224 83.8442 145.864C83.5442 145.504 83.1482 145.324 82.6562 145.324ZM92.1475 145.324C91.5715 145.324 91.1395 145.6 90.8515 146.152C90.5755 146.692 90.4375 147.604 90.4375 148.888V149.968C90.4375 151.24 90.5995 152.158 90.9235 152.722C91.2475 153.274 91.7755 153.55 92.5075 153.55C93.0475 153.55 93.4855 153.4 93.8215 153.1C94.1695 152.788 94.3675 152.266 94.4155 151.534L95.5675 151.858C95.3515 152.698 94.9555 153.298 94.3795 153.658C93.8155 154.006 93.1495 154.18 92.3815 154.18C91.0015 154.18 89.9635 153.766 89.2675 152.938C88.5715 152.098 88.2235 150.988 88.2235 149.608V149.248C88.2235 147.868 88.5595 146.764 89.2315 145.936C89.9035 145.108 90.8755 144.694 92.1475 144.694C92.9875 144.694 93.6715 144.862 94.1995 145.198C94.7395 145.522 95.1175 145.954 95.3335 146.494C95.5615 147.022 95.6215 147.592 95.5135 148.204L93.5335 148.492C93.6655 147.484 93.6115 146.704 93.3715 146.152C93.1315 145.6 92.7235 145.324 92.1475 145.324ZM103.144 152.128C102.988 152.86 102.688 153.388 102.244 153.712C101.812 154.024 101.284 154.18 100.66 154.18C100.024 154.18 99.5023 154.042 99.0943 153.766C98.6863 153.478 98.3863 153.1 98.1943 152.632C98.0023 152.164 97.9063 151.666 97.9063 151.138V146.386C97.9063 145.978 97.8883 145.738 97.8523 145.666C97.8163 145.582 97.7023 145.528 97.5103 145.504L96.5203 145.378V144.874H97.9063V142.786L99.9763 142.372V144.874H102.856V145.504H99.9763V151.498C99.9763 152.266 100.072 152.8 100.264 153.1C100.456 153.388 100.702 153.532 101.002 153.532C101.314 153.532 101.554 153.412 101.722 153.172C101.902 152.932 102.016 152.494 102.064 151.858L103.144 152.128ZM112.399 153.55C113.119 153.55 113.713 153.382 114.181 153.046C114.661 152.698 114.901 152.158 114.901 151.426C114.901 150.886 114.739 150.436 114.415 150.076C114.103 149.716 113.539 149.416 112.723 149.176L111.049 148.672C110.209 148.42 109.561 147.988 109.105 147.376C108.661 146.752 108.439 145.978 108.439 145.054C108.439 144.442 108.577 143.872 108.853 143.344C109.141 142.816 109.573 142.39 110.149 142.066C110.737 141.742 111.475 141.58 112.363 141.58C113.335 141.58 114.121 141.76 114.721 142.12C115.321 142.468 115.741 142.924 115.981 143.488C116.221 144.052 116.281 144.658 116.161 145.306L114.091 145.684C114.283 144.568 114.199 143.71 113.839 143.11C113.491 142.51 112.921 142.21 112.129 142.21C111.517 142.21 111.025 142.39 110.653 142.75C110.293 143.11 110.113 143.626 110.113 144.298C110.113 144.85 110.269 145.336 110.581 145.756C110.905 146.176 111.433 146.5 112.165 146.728L113.839 147.232C114.751 147.496 115.435 147.898 115.891 148.438C116.347 148.966 116.575 149.704 116.575 150.652C116.575 151.324 116.419 151.93 116.107 152.47C115.807 152.998 115.345 153.418 114.721 153.73C114.109 154.03 113.341 154.18 112.417 154.18C111.745 154.18 111.109 154.084 110.509 153.892C109.909 153.688 109.405 153.358 108.997 152.902C108.601 152.446 108.349 151.828 108.241 151.048L109.447 150.616C109.507 151.384 109.675 151.984 109.951 152.416C110.239 152.836 110.593 153.13 111.013 153.298C111.445 153.466 111.907 153.55 112.399 153.55ZM118.331 142.264V141.76H123.749C125.069 141.76 126.053 142.066 126.701 142.678C127.361 143.278 127.691 144.082 127.691 145.09V145.504C127.691 146.512 127.361 147.322 126.701 147.934C126.053 148.546 125.069 148.852 123.749 148.852H121.877V152.488C121.877 152.896 121.895 153.142 121.931 153.226C121.967 153.298 122.081 153.346 122.273 153.37L123.623 153.496V154H118.331V153.496L119.321 153.37C119.513 153.346 119.627 153.298 119.663 153.226C119.699 153.142 119.717 152.896 119.717 152.488V143.272C119.717 142.864 119.699 142.624 119.663 142.552C119.627 142.468 119.513 142.414 119.321 142.39L118.331 142.264ZM123.749 142.39H121.877V148.222H123.749C124.277 148.222 124.679 148.012 124.955 147.592C125.243 147.172 125.387 146.596 125.387 145.864V144.73C125.387 143.998 125.243 143.428 124.955 143.02C124.679 142.6 124.277 142.39 123.749 142.39ZM137.494 150.904H137.998V154H129.088V153.496L130.078 153.37C130.27 153.346 130.384 153.298 130.42 153.226C130.456 153.142 130.474 152.896 130.474 152.488V143.272C130.474 142.864 130.456 142.624 130.42 142.552C130.384 142.468 130.27 142.414 130.078 142.39L129.088 142.264V141.76H137.818V144.856H137.314L136.738 142.858C136.702 142.714 136.66 142.612 136.612 142.552C136.576 142.48 136.498 142.438 136.378 142.426C136.258 142.402 136.054 142.39 135.766 142.39H132.634V147.502H134.686C134.974 147.502 135.178 147.496 135.298 147.484C135.418 147.46 135.496 147.418 135.532 147.358C135.58 147.286 135.622 147.178 135.658 147.034L136.054 145.576H136.558V150.058H136.054L135.658 148.6C135.622 148.456 135.58 148.354 135.532 148.294C135.496 148.222 135.418 148.18 135.298 148.168C135.178 148.144 134.974 148.132 134.686 148.132H132.634V153.37H135.946C136.234 153.37 136.438 153.364 136.558 153.352C136.678 153.328 136.756 153.286 136.792 153.226C136.84 153.154 136.882 153.046 136.918 152.902L137.494 150.904ZM147.98 150.904H148.484V154H139.934V153.496L140.924 153.37C141.116 153.346 141.23 153.298 141.266 153.226C141.302 153.142 141.32 152.896 141.32 152.488V143.272C141.32 142.864 141.302 142.624 141.266 142.552C141.23 142.468 141.116 142.414 140.924 142.39L139.934 142.264V141.76H144.866V142.264L143.876 142.39C143.684 142.414 143.57 142.468 143.534 142.552C143.498 142.624 143.48 142.864 143.48 143.272V153.37H146.432C146.72 153.37 146.924 153.364 147.044 153.352C147.164 153.328 147.242 153.286 147.278 153.226C147.326 153.154 147.368 153.046 147.404 152.902L147.98 150.904ZM157.56 150.904H158.064V154H149.514V153.496L150.504 153.37C150.696 153.346 150.81 153.298 150.846 153.226C150.882 153.142 150.9 152.896 150.9 152.488V143.272C150.9 142.864 150.882 142.624 150.846 142.552C150.81 142.468 150.696 142.414 150.504 142.39L149.514 142.264V141.76H154.446V142.264L153.456 142.39C153.264 142.414 153.15 142.468 153.114 142.552C153.078 142.624 153.06 142.864 153.06 143.272V153.37H156.012C156.3 153.37 156.504 153.364 156.624 153.352C156.744 153.328 156.822 153.286 156.858 153.226C156.906 153.154 156.948 153.046 156.984 152.902L157.56 150.904ZM159.094 142.264V141.76H164.026V142.264L163.036 142.39C162.844 142.414 162.73 142.468 162.694 142.552C162.658 142.624 162.64 142.864 162.64 143.272V152.488C162.64 152.896 162.658 153.142 162.694 153.226C162.73 153.298 162.844 153.346 163.036 153.37L164.026 153.496V154H159.094V153.496L160.084 153.37C160.276 153.346 160.39 153.298 160.426 153.226C160.462 153.142 160.48 152.896 160.48 152.488V143.272C160.48 142.864 160.462 142.624 160.426 142.552C160.39 142.468 160.276 142.414 160.084 142.39L159.094 142.264ZM173.177 142.264V141.76H176.669V142.264L175.679 142.39C175.487 142.414 175.373 142.468 175.337 142.552C175.301 142.624 175.283 142.864 175.283 143.272V154H174.293L167.687 143.326V152.488C167.687 152.896 167.705 153.142 167.741 153.226C167.777 153.298 167.891 153.346 168.083 153.37L169.073 153.496V154H165.581V153.496L166.571 153.37C166.763 153.346 166.877 153.298 166.913 153.226C166.949 153.142 166.967 152.896 166.967 152.488V143.272C166.967 142.864 166.949 142.624 166.913 142.552C166.877 142.468 166.763 142.414 166.571 142.39L165.581 142.264V141.76H169.199L174.563 150.382V143.272C174.563 142.864 174.545 142.624 174.509 142.552C174.473 142.468 174.359 142.414 174.167 142.39L173.177 142.264ZM183.662 148.96V148.456H188.774V148.96L187.784 149.086C187.592 149.11 187.478 149.164 187.442 149.248C187.406 149.32 187.388 149.56 187.388 149.968V154H186.902C186.578 153.664 186.218 153.382 185.822 153.154C185.498 153.442 185.114 153.688 184.67 153.892C184.226 154.084 183.686 154.18 183.05 154.18C182.066 154.18 181.22 153.934 180.512 153.442C179.816 152.938 179.282 152.248 178.91 151.372C178.538 150.484 178.352 149.476 178.352 148.348V147.214C178.352 146.122 178.538 145.156 178.91 144.316C179.282 143.464 179.828 142.798 180.548 142.318C181.268 141.826 182.15 141.58 183.194 141.58C184.178 141.58 184.988 141.76 185.624 142.12C186.272 142.468 186.746 142.936 187.046 143.524C187.346 144.1 187.46 144.73 187.388 145.414L185.282 145.936C185.414 144.736 185.282 143.818 184.886 143.182C184.49 142.534 183.902 142.21 183.122 142.21C181.478 142.21 180.656 143.668 180.656 146.584V149.158C180.656 152.086 181.526 153.55 183.266 153.55C183.65 153.55 184.034 153.472 184.418 153.316C184.814 153.16 185.144 152.932 185.408 152.632V149.968C185.408 149.56 185.39 149.314 185.354 149.23C185.318 149.146 185.204 149.098 185.012 149.086L183.662 148.96ZM204.015 153.496V154H199.173V153.496L200.163 153.37C200.355 153.346 200.469 153.298 200.505 153.226C200.541 153.142 200.559 152.896 200.559 152.488V147.952C200.559 147.124 200.433 146.524 200.181 146.152C199.941 145.768 199.581 145.576 199.101 145.576C198.897 145.576 198.657 145.63 198.381 145.738C198.117 145.834 197.847 146.014 197.571 146.278C197.307 146.542 197.073 146.932 196.869 147.448V152.488C196.869 152.896 196.887 153.142 196.923 153.226C196.959 153.298 197.073 153.346 197.265 153.37L198.255 153.496V154H193.413V153.496L194.403 153.37C194.595 153.346 194.709 153.298 194.745 153.226C194.781 153.142 194.799 152.896 194.799 152.488V142.192C194.799 141.784 194.781 141.544 194.745 141.472C194.709 141.388 194.595 141.334 194.403 141.31L193.413 141.184V140.68H196.869V146.278C197.217 145.726 197.649 145.324 198.165 145.072C198.693 144.82 199.221 144.694 199.749 144.694C200.637 144.694 201.339 144.976 201.855 145.54C202.371 146.104 202.629 146.902 202.629 147.934V152.488C202.629 152.896 202.647 153.142 202.683 153.226C202.719 153.298 202.833 153.346 203.025 153.37L204.015 153.496ZM212.749 151.858C212.533 152.698 212.131 153.298 211.543 153.658C210.955 154.006 210.271 154.18 209.491 154.18C208.051 154.18 206.971 153.766 206.251 152.938C205.531 152.098 205.171 150.988 205.171 149.608V149.248C205.171 147.868 205.507 146.764 206.179 145.936C206.863 145.108 207.847 144.694 209.131 144.694C209.851 144.694 210.487 144.838 211.039 145.126C211.603 145.402 212.041 145.804 212.353 146.332C212.677 146.86 212.839 147.502 212.839 148.258C212.839 148.438 212.827 148.63 212.803 148.834C212.791 149.038 212.761 149.242 212.713 149.446H207.385V149.968C207.385 151.24 207.565 152.158 207.925 152.722C208.285 153.274 208.867 153.55 209.671 153.55C210.187 153.55 210.625 153.4 210.985 153.1C211.345 152.788 211.549 152.266 211.597 151.534L212.749 151.858ZM209.131 145.324C208.543 145.324 208.105 145.594 207.817 146.134C207.529 146.674 207.385 147.568 207.385 148.816H210.643C210.691 148.576 210.721 148.354 210.733 148.15C210.757 147.934 210.769 147.736 210.769 147.556C210.769 146.788 210.619 146.224 210.319 145.864C210.019 145.504 209.623 145.324 209.131 145.324ZM214.032 141.184V140.68H217.488V152.488C217.488 152.896 217.506 153.142 217.542 153.226C217.578 153.298 217.692 153.346 217.884 153.37L218.874 153.496V154H214.032V153.496L215.022 153.37C215.214 153.346 215.328 153.298 215.364 153.226C215.4 153.142 215.418 152.896 215.418 152.488V142.192C215.418 141.784 215.4 141.544 215.364 141.472C215.328 141.388 215.214 141.334 215.022 141.31L214.032 141.184ZM219.446 145.378V144.874H222.794V146.368C223.142 145.804 223.52 145.384 223.928 145.108C224.336 144.832 224.822 144.694 225.386 144.694C226.394 144.694 227.192 145.096 227.78 145.9C228.38 146.692 228.68 147.808 228.68 149.248V149.608C228.68 151 228.338 152.11 227.654 152.938C226.97 153.766 226.022 154.18 224.81 154.18C224.09 154.18 223.454 154 222.902 153.64V156.322C222.902 156.73 222.92 156.97 222.956 157.042C222.992 157.126 223.106 157.18 223.298 157.204L224.648 157.33V157.834H219.446V157.33L220.436 157.204C220.628 157.18 220.742 157.126 220.778 157.042C220.814 156.97 220.832 156.73 220.832 156.322V146.386C220.832 145.978 220.814 145.738 220.778 145.666C220.742 145.582 220.628 145.528 220.436 145.504L219.446 145.378ZM224.918 145.486C224.618 145.486 224.3 145.612 223.964 145.864C223.64 146.104 223.286 146.602 222.902 147.358V152.794C223.358 153.25 223.916 153.478 224.576 153.478C225.248 153.478 225.728 153.184 226.016 152.596C226.316 151.996 226.466 151.18 226.466 150.148V148.708C226.466 147.592 226.328 146.776 226.052 146.26C225.776 145.744 225.398 145.486 224.918 145.486ZM238.22 151.858C238.004 152.698 237.602 153.298 237.014 153.658C236.426 154.006 235.742 154.18 234.962 154.18C233.522 154.18 232.442 153.766 231.722 152.938C231.002 152.098 230.642 150.988 230.642 149.608V149.248C230.642 147.868 230.978 146.764 231.65 145.936C232.334 145.108 233.318 144.694 234.602 144.694C235.322 144.694 235.958 144.838 236.51 145.126C237.074 145.402 237.512 145.804 237.824 146.332C238.148 146.86 238.31 147.502 238.31 148.258C238.31 148.438 238.298 148.63 238.274 148.834C238.262 149.038 238.232 149.242 238.184 149.446H232.856V149.968C232.856 151.24 233.036 152.158 233.396 152.722C233.756 153.274 234.338 153.55 235.142 153.55C235.658 153.55 236.096 153.4 236.456 153.1C236.816 152.788 237.02 152.266 237.068 151.534L238.22 151.858ZM234.602 145.324C234.014 145.324 233.576 145.594 233.288 146.134C233 146.674 232.856 147.568 232.856 148.816H236.114C236.162 148.576 236.192 148.354 236.204 148.15C236.228 147.934 236.24 147.736 236.24 147.556C236.24 146.788 236.09 146.224 235.79 145.864C235.49 145.504 235.094 145.324 234.602 145.324ZM249.457 153.496V154H246.109V152.506C245.773 153.058 245.395 153.478 244.975 153.766C244.567 154.042 244.081 154.18 243.517 154.18C242.509 154.18 241.705 153.784 241.105 152.992C240.517 152.188 240.223 151.066 240.223 149.626V149.266C240.223 147.874 240.565 146.764 241.249 145.936C241.945 145.108 242.893 144.694 244.093 144.694C244.813 144.694 245.449 144.874 246.001 145.234V142.192C246.001 141.784 245.983 141.544 245.947 141.472C245.911 141.388 245.797 141.334 245.605 141.31L244.615 141.184V140.68H248.071V152.488C248.071 152.896 248.089 153.142 248.125 153.226C248.161 153.298 248.275 153.346 248.467 153.37L249.457 153.496ZM242.437 150.166C242.437 151.282 242.575 152.098 242.851 152.614C243.127 153.13 243.505 153.388 243.985 153.388C244.285 153.388 244.597 153.268 244.921 153.028C245.257 152.776 245.617 152.272 246.001 151.516V146.08C245.545 145.624 244.987 145.396 244.327 145.396C243.667 145.396 243.187 145.696 242.887 146.296C242.587 146.884 242.437 147.694 242.437 148.726V150.166ZM254.184 145.378V144.874H257.532V146.35C258.264 145.246 259.134 144.694 260.142 144.694C260.514 144.694 260.874 144.814 261.222 145.054C261.57 145.282 261.858 145.714 262.086 146.35L260.484 147.214C260.316 146.722 260.118 146.392 259.89 146.224C259.674 146.044 259.44 145.954 259.188 145.954C258.924 145.954 258.666 146.038 258.414 146.206C258.162 146.374 257.904 146.686 257.64 147.142V152.488C257.64 152.896 257.658 153.142 257.694 153.226C257.73 153.298 257.844 153.346 258.036 153.37L259.386 153.496V154H254.184V153.496L255.174 153.37C255.366 153.346 255.48 153.298 255.516 153.226C255.552 153.142 255.57 152.896 255.57 152.488V146.386C255.57 145.978 255.552 145.738 255.516 145.666C255.48 145.582 255.366 145.528 255.174 145.504L254.184 145.378ZM270.352 151.858C270.136 152.698 269.734 153.298 269.146 153.658C268.558 154.006 267.874 154.18 267.094 154.18C265.654 154.18 264.574 153.766 263.854 152.938C263.134 152.098 262.774 150.988 262.774 149.608V149.248C262.774 147.868 263.11 146.764 263.782 145.936C264.466 145.108 265.45 144.694 266.734 144.694C267.454 144.694 268.09 144.838 268.642 145.126C269.206 145.402 269.644 145.804 269.956 146.332C270.28 146.86 270.442 147.502 270.442 148.258C270.442 148.438 270.43 148.63 270.406 148.834C270.394 149.038 270.364 149.242 270.316 149.446H264.988V149.968C264.988 151.24 265.168 152.158 265.528 152.722C265.888 153.274 266.47 153.55 267.274 153.55C267.79 153.55 268.228 153.4 268.588 153.1C268.948 152.788 269.152 152.266 269.2 151.534L270.352 151.858ZM266.734 145.324C266.146 145.324 265.708 145.594 265.42 146.134C265.132 146.674 264.988 147.568 264.988 148.816H268.246C268.294 148.576 268.324 148.354 268.336 148.15C268.36 147.934 268.372 147.736 268.372 147.556C268.372 146.788 268.222 146.224 267.922 145.864C267.622 145.504 267.226 145.324 266.734 145.324ZM275.866 150.598L274.624 150.31C273.82 150.118 273.22 149.776 272.824 149.284C272.44 148.78 272.248 148.186 272.248 147.502C272.248 146.998 272.356 146.536 272.572 146.116C272.8 145.684 273.154 145.342 273.634 145.09C274.114 144.826 274.738 144.694 275.506 144.694C276.334 144.694 277.006 144.826 277.522 145.09C278.038 145.354 278.404 145.702 278.62 146.134C278.836 146.566 278.902 147.028 278.818 147.52L276.838 147.88C277.006 147.064 276.958 146.434 276.694 145.99C276.442 145.546 276.016 145.324 275.416 145.324C274.996 145.324 274.648 145.45 274.372 145.702C274.096 145.942 273.958 146.29 273.958 146.746C273.958 147.166 274.078 147.538 274.318 147.862C274.558 148.174 274.912 148.384 275.38 148.492L276.622 148.78C277.51 148.984 278.152 149.308 278.548 149.752C278.944 150.184 279.142 150.724 279.142 151.372C279.142 152.176 278.842 152.848 278.242 153.388C277.654 153.916 276.772 154.18 275.596 154.18C275.188 154.18 274.738 154.12 274.246 154C273.766 153.868 273.322 153.634 272.914 153.298C272.518 152.962 272.23 152.482 272.05 151.858L273.22 151.39C273.304 152.182 273.574 152.74 274.03 153.064C274.498 153.388 275.02 153.55 275.596 153.55C276.136 153.55 276.574 153.43 276.91 153.19C277.258 152.938 277.432 152.578 277.432 152.11C277.432 151.786 277.318 151.492 277.09 151.228C276.874 150.952 276.466 150.742 275.866 150.598ZM286.818 152.128C286.662 152.86 286.362 153.388 285.918 153.712C285.486 154.024 284.958 154.18 284.334 154.18C283.698 154.18 283.176 154.042 282.768 153.766C282.36 153.478 282.06 153.1 281.868 152.632C281.676 152.164 281.58 151.666 281.58 151.138V146.386C281.58 145.978 281.562 145.738 281.526 145.666C281.49 145.582 281.376 145.528 281.184 145.504L280.194 145.378V144.874H281.58V142.786L283.65 142.372V144.874H286.53V145.504H283.65V151.498C283.65 152.266 283.746 152.8 283.938 153.1C284.13 153.388 284.376 153.532 284.676 153.532C284.988 153.532 285.228 153.412 285.396 153.172C285.576 152.932 285.69 152.494 285.738 151.858L286.818 152.128ZM296.278 149.248V149.608C296.278 150.988 295.918 152.098 295.198 152.938C294.49 153.766 293.476 154.18 292.156 154.18C290.836 154.18 289.816 153.766 289.096 152.938C288.388 152.098 288.034 150.988 288.034 149.608V149.248C288.034 147.868 288.388 146.764 289.096 145.936C289.816 145.108 290.836 144.694 292.156 144.694C293.476 144.694 294.49 145.108 295.198 145.936C295.918 146.764 296.278 147.868 296.278 149.248ZM294.064 148.888C294.064 147.604 293.902 146.692 293.578 146.152C293.254 145.6 292.78 145.324 292.156 145.324C291.544 145.324 291.07 145.6 290.734 146.152C290.41 146.692 290.248 147.604 290.248 148.888V149.968C290.248 151.24 290.41 152.158 290.734 152.722C291.07 153.274 291.544 153.55 292.156 153.55C292.78 153.55 293.254 153.274 293.578 152.722C293.902 152.158 294.064 151.24 294.064 149.968V148.888ZM297.619 145.378V144.874H300.967V146.35C301.699 145.246 302.569 144.694 303.577 144.694C303.949 144.694 304.309 144.814 304.657 145.054C305.005 145.282 305.293 145.714 305.521 146.35L303.919 147.214C303.751 146.722 303.553 146.392 303.325 146.224C303.109 146.044 302.875 145.954 302.623 145.954C302.359 145.954 302.101 146.038 301.849 146.206C301.597 146.374 301.339 146.686 301.075 147.142V152.488C301.075 152.896 301.093 153.142 301.129 153.226C301.165 153.298 301.279 153.346 301.471 153.37L302.821 153.496V154H297.619V153.496L298.609 153.37C298.801 153.346 298.915 153.298 298.951 153.226C298.987 153.142 299.005 152.896 299.005 152.488V146.386C299.005 145.978 298.987 145.738 298.951 145.666C298.915 145.582 298.801 145.528 298.609 145.504L297.619 145.378ZM313.788 151.858C313.572 152.698 313.17 153.298 312.582 153.658C311.994 154.006 311.31 154.18 310.53 154.18C309.09 154.18 308.01 153.766 307.29 152.938C306.57 152.098 306.21 150.988 306.21 149.608V149.248C306.21 147.868 306.546 146.764 307.218 145.936C307.902 145.108 308.886 144.694 310.17 144.694C310.89 144.694 311.526 144.838 312.078 145.126C312.642 145.402 313.08 145.804 313.392 146.332C313.716 146.86 313.878 147.502 313.878 148.258C313.878 148.438 313.866 148.63 313.842 148.834C313.83 149.038 313.8 149.242 313.752 149.446H308.424V149.968C308.424 151.24 308.604 152.158 308.964 152.722C309.324 153.274 309.906 153.55 310.71 153.55C311.226 153.55 311.664 153.4 312.024 153.1C312.384 152.788 312.588 152.266 312.636 151.534L313.788 151.858ZM310.17 145.324C309.582 145.324 309.144 145.594 308.856 146.134C308.568 146.674 308.424 147.568 308.424 148.816H311.682C311.73 148.576 311.76 148.354 311.772 148.15C311.796 147.934 311.808 147.736 311.808 147.556C311.808 146.788 311.658 146.224 311.358 145.864C311.058 145.504 310.662 145.324 310.17 145.324ZM90.6919 163.184V162.68H94.1479V168.206C94.4719 167.702 94.8319 167.324 95.2279 167.072C95.6359 166.82 96.1039 166.694 96.6319 166.694C97.6399 166.694 98.4379 167.096 99.0259 167.9C99.6259 168.692 99.9259 169.808 99.9259 171.248V171.608C99.9259 173 99.5839 174.11 98.8999 174.938C98.2159 175.766 97.2679 176.18 96.0559 176.18C95.1319 176.18 94.3759 175.904 93.7879 175.352C93.5719 175.436 93.3619 175.544 93.1579 175.676C92.9659 175.796 92.7679 175.934 92.5639 176.09H92.0779V164.192C92.0779 163.784 92.0599 163.544 92.0239 163.472C91.9879 163.388 91.8739 163.334 91.6819 163.31L90.6919 163.184ZM96.1639 167.486C95.8639 167.486 95.5459 167.612 95.2099 167.864C94.8859 168.104 94.5319 168.602 94.1479 169.358V174.794C94.6039 175.25 95.1619 175.478 95.8219 175.478C96.4939 175.478 96.9739 175.184 97.2619 174.596C97.5619 173.996 97.7119 173.18 97.7119 172.148V170.708C97.7119 169.592 97.5739 168.776 97.2979 168.26C97.0219 167.744 96.6439 167.486 96.1639 167.486ZM110.531 175.55C110.339 175.73 110.105 175.88 109.829 176C109.565 176.12 109.241 176.18 108.857 176.18C108.365 176.18 107.951 176.072 107.615 175.856C107.291 175.64 107.075 175.334 106.967 174.938C106.571 175.37 106.133 175.688 105.653 175.892C105.185 176.084 104.705 176.18 104.213 176.18C103.385 176.18 102.767 175.952 102.359 175.496C101.951 175.028 101.747 174.446 101.747 173.75C101.747 173.042 102.005 172.472 102.521 172.04C103.037 171.596 103.949 171.374 105.257 171.374H106.895V169.916C106.895 168.92 106.763 168.242 106.499 167.882C106.247 167.51 105.893 167.324 105.437 167.324C105.137 167.324 104.861 167.402 104.609 167.558C104.357 167.702 104.177 167.978 104.069 168.386C103.973 168.782 103.991 169.358 104.123 170.114L102.143 169.826C102.047 169.274 102.107 168.764 102.323 168.296C102.551 167.816 102.929 167.432 103.457 167.144C103.985 166.844 104.657 166.694 105.473 166.694C106.397 166.694 107.111 166.844 107.615 167.144C108.119 167.444 108.467 167.84 108.659 168.332C108.863 168.824 108.965 169.352 108.965 169.916V174.074C108.965 174.686 109.019 175.07 109.127 175.226C109.235 175.382 109.355 175.46 109.487 175.46C109.703 175.46 109.943 175.334 110.207 175.082L110.531 175.55ZM105.005 175.226C105.317 175.226 105.623 175.148 105.923 174.992C106.235 174.824 106.559 174.518 106.895 174.074V172.004H105.545C104.957 172.004 104.531 172.142 104.267 172.418C104.003 172.694 103.871 173.126 103.871 173.714C103.871 174.194 103.967 174.566 104.159 174.83C104.351 175.094 104.633 175.226 105.005 175.226ZM110.91 163.184V162.68H114.366V174.488C114.366 174.896 114.384 175.142 114.42 175.226C114.456 175.298 114.57 175.346 114.762 175.37L115.752 175.496V176H110.91V175.496L111.9 175.37C112.092 175.346 112.206 175.298 112.242 175.226C112.278 175.142 112.296 174.896 112.296 174.488V164.192C112.296 163.784 112.278 163.544 112.242 163.472C112.206 163.388 112.092 163.334 111.9 163.31L110.91 163.184ZM125.63 175.55C125.438 175.73 125.204 175.88 124.928 176C124.664 176.12 124.34 176.18 123.956 176.18C123.464 176.18 123.05 176.072 122.714 175.856C122.39 175.64 122.174 175.334 122.066 174.938C121.67 175.37 121.232 175.688 120.752 175.892C120.284 176.084 119.804 176.18 119.312 176.18C118.484 176.18 117.866 175.952 117.458 175.496C117.05 175.028 116.846 174.446 116.846 173.75C116.846 173.042 117.104 172.472 117.62 172.04C118.136 171.596 119.048 171.374 120.356 171.374H121.994V169.916C121.994 168.92 121.862 168.242 121.598 167.882C121.346 167.51 120.992 167.324 120.536 167.324C120.236 167.324 119.96 167.402 119.708 167.558C119.456 167.702 119.276 167.978 119.168 168.386C119.072 168.782 119.09 169.358 119.222 170.114L117.242 169.826C117.146 169.274 117.206 168.764 117.422 168.296C117.65 167.816 118.028 167.432 118.556 167.144C119.084 166.844 119.756 166.694 120.572 166.694C121.496 166.694 122.21 166.844 122.714 167.144C123.218 167.444 123.566 167.84 123.758 168.332C123.962 168.824 124.064 169.352 124.064 169.916V174.074C124.064 174.686 124.118 175.07 124.226 175.226C124.334 175.382 124.454 175.46 124.586 175.46C124.802 175.46 125.042 175.334 125.306 175.082L125.63 175.55ZM120.104 175.226C120.416 175.226 120.722 175.148 121.022 174.992C121.334 174.824 121.658 174.518 121.994 174.074V172.004H120.644C120.056 172.004 119.63 172.142 119.366 172.418C119.102 172.694 118.97 173.126 118.97 173.714C118.97 174.194 119.066 174.566 119.258 174.83C119.45 175.094 119.732 175.226 120.104 175.226ZM136.738 175.496V176H131.896V175.496L132.886 175.37C133.078 175.346 133.192 175.298 133.228 175.226C133.264 175.142 133.282 174.896 133.282 174.488V169.952C133.282 169.124 133.156 168.524 132.904 168.152C132.664 167.768 132.304 167.576 131.824 167.576C131.62 167.576 131.38 167.63 131.104 167.738C130.84 167.834 130.57 168.014 130.294 168.278C130.03 168.542 129.796 168.932 129.592 169.448V174.488C129.592 174.896 129.61 175.142 129.646 175.226C129.682 175.298 129.796 175.346 129.988 175.37L130.978 175.496V176H126.136V175.496L127.126 175.37C127.318 175.346 127.432 175.298 127.468 175.226C127.504 175.142 127.522 174.896 127.522 174.488V168.386C127.522 167.978 127.504 167.738 127.468 167.666C127.432 167.582 127.318 167.528 127.126 167.504L126.136 167.378V166.874H129.484V168.458C129.832 167.846 130.276 167.402 130.816 167.126C131.368 166.838 131.92 166.694 132.472 166.694C133.36 166.694 134.062 166.976 134.578 167.54C135.094 168.104 135.352 168.902 135.352 169.934V174.488C135.352 174.896 135.37 175.142 135.406 175.226C135.442 175.298 135.556 175.346 135.748 175.37L136.738 175.496ZM141.815 167.324C141.239 167.324 140.807 167.6 140.519 168.152C140.243 168.692 140.105 169.604 140.105 170.888V171.968C140.105 173.24 140.267 174.158 140.591 174.722C140.915 175.274 141.443 175.55 142.175 175.55C142.715 175.55 143.153 175.4 143.489 175.1C143.837 174.788 144.035 174.266 144.083 173.534L145.235 173.858C145.019 174.698 144.623 175.298 144.047 175.658C143.483 176.006 142.817 176.18 142.049 176.18C140.669 176.18 139.631 175.766 138.935 174.938C138.239 174.098 137.891 172.988 137.891 171.608V171.248C137.891 169.868 138.227 168.764 138.899 167.936C139.571 167.108 140.543 166.694 141.815 166.694C142.655 166.694 143.339 166.862 143.867 167.198C144.407 167.522 144.785 167.954 145.001 168.494C145.229 169.022 145.289 169.592 145.181 170.204L143.201 170.492C143.333 169.484 143.279 168.704 143.039 168.152C142.799 167.6 142.391 167.324 141.815 167.324ZM154.521 173.858C154.305 174.698 153.903 175.298 153.315 175.658C152.727 176.006 152.043 176.18 151.263 176.18C149.823 176.18 148.743 175.766 148.023 174.938C147.303 174.098 146.943 172.988 146.943 171.608V171.248C146.943 169.868 147.279 168.764 147.951 167.936C148.635 167.108 149.619 166.694 150.903 166.694C151.623 166.694 152.259 166.838 152.811 167.126C153.375 167.402 153.813 167.804 154.125 168.332C154.449 168.86 154.611 169.502 154.611 170.258C154.611 170.438 154.599 170.63 154.575 170.834C154.563 171.038 154.533 171.242 154.485 171.446H149.157V171.968C149.157 173.24 149.337 174.158 149.697 174.722C150.057 175.274 150.639 175.55 151.443 175.55C151.959 175.55 152.397 175.4 152.757 175.1C153.117 174.788 153.321 174.266 153.369 173.534L154.521 173.858ZM150.903 167.324C150.315 167.324 149.877 167.594 149.589 168.134C149.301 168.674 149.157 169.568 149.157 170.816H152.415C152.463 170.576 152.493 170.354 152.505 170.15C152.529 169.934 152.541 169.736 152.541 169.556C152.541 168.788 152.391 168.224 152.091 167.864C151.791 167.504 151.395 167.324 150.903 167.324ZM162.368 165.326C161.996 165.326 161.696 165.212 161.468 164.984C161.24 164.744 161.126 164.438 161.126 164.066C161.126 163.694 161.24 163.394 161.468 163.166C161.696 162.938 161.996 162.824 162.368 162.824C162.728 162.824 163.028 162.938 163.268 163.166C163.508 163.394 163.628 163.694 163.628 164.066C163.628 164.438 163.508 164.744 163.268 164.984C163.028 165.212 162.728 165.326 162.368 165.326ZM159.956 167.378V166.874H163.412V174.488C163.412 174.896 163.43 175.142 163.466 175.226C163.502 175.298 163.616 175.346 163.808 175.37L164.798 175.496V176H159.956V175.496L160.946 175.37C161.138 175.346 161.252 175.298 161.288 175.226C161.324 175.142 161.342 174.896 161.342 174.488V168.386C161.342 167.978 161.324 167.738 161.288 167.666C161.252 167.582 161.138 167.528 160.946 167.504L159.956 167.378ZM176.095 175.496V176H171.253V175.496L172.243 175.37C172.435 175.346 172.549 175.298 172.585 175.226C172.621 175.142 172.639 174.896 172.639 174.488V169.952C172.639 169.124 172.513 168.524 172.261 168.152C172.021 167.768 171.661 167.576 171.181 167.576C170.977 167.576 170.737 167.63 170.461 167.738C170.197 167.834 169.927 168.014 169.651 168.278C169.387 168.542 169.153 168.932 168.949 169.448V174.488C168.949 174.896 168.967 175.142 169.003 175.226C169.039 175.298 169.153 175.346 169.345 175.37L170.335 175.496V176H165.493V175.496L166.483 175.37C166.675 175.346 166.789 175.298 166.825 175.226C166.861 175.142 166.879 174.896 166.879 174.488V168.386C166.879 167.978 166.861 167.738 166.825 167.666C166.789 167.582 166.675 167.528 166.483 167.504L165.493 167.378V166.874H168.841V168.458C169.189 167.846 169.633 167.402 170.173 167.126C170.725 166.838 171.277 166.694 171.829 166.694C172.717 166.694 173.419 166.976 173.935 167.54C174.451 168.104 174.709 168.902 174.709 169.934V174.488C174.709 174.896 174.727 175.142 174.763 175.226C174.799 175.298 174.913 175.346 175.105 175.37L176.095 175.496ZM187.141 174.128C186.985 174.86 186.685 175.388 186.241 175.712C185.809 176.024 185.281 176.18 184.657 176.18C184.021 176.18 183.499 176.042 183.091 175.766C182.683 175.478 182.383 175.1 182.191 174.632C181.999 174.164 181.903 173.666 181.903 173.138V168.386C181.903 167.978 181.885 167.738 181.849 167.666C181.813 167.582 181.699 167.528 181.507 167.504L180.517 167.378V166.874H181.903V164.786L183.973 164.372V166.874H186.853V167.504H183.973V173.498C183.973 174.266 184.069 174.8 184.261 175.1C184.453 175.388 184.699 175.532 184.999 175.532C185.311 175.532 185.551 175.412 185.719 175.172C185.899 174.932 186.013 174.494 186.061 173.858L187.141 174.128ZM198.311 175.496V176H193.469V175.496L194.459 175.37C194.651 175.346 194.765 175.298 194.801 175.226C194.837 175.142 194.855 174.896 194.855 174.488V169.952C194.855 169.124 194.729 168.524 194.477 168.152C194.237 167.768 193.877 167.576 193.397 167.576C193.193 167.576 192.953 167.63 192.677 167.738C192.413 167.834 192.143 168.014 191.867 168.278C191.603 168.542 191.369 168.932 191.165 169.448V174.488C191.165 174.896 191.183 175.142 191.219 175.226C191.255 175.298 191.369 175.346 191.561 175.37L192.551 175.496V176H187.709V175.496L188.699 175.37C188.891 175.346 189.005 175.298 189.041 175.226C189.077 175.142 189.095 174.896 189.095 174.488V164.192C189.095 163.784 189.077 163.544 189.041 163.472C189.005 163.388 188.891 163.334 188.699 163.31L187.709 163.184V162.68H191.165V168.278C191.513 167.726 191.945 167.324 192.461 167.072C192.989 166.82 193.517 166.694 194.045 166.694C194.933 166.694 195.635 166.976 196.151 167.54C196.667 168.104 196.925 168.902 196.925 169.934V174.488C196.925 174.896 196.943 175.142 196.979 175.226C197.015 175.298 197.129 175.346 197.321 175.37L198.311 175.496ZM207.045 173.858C206.829 174.698 206.427 175.298 205.839 175.658C205.251 176.006 204.567 176.18 203.787 176.18C202.347 176.18 201.267 175.766 200.547 174.938C199.827 174.098 199.467 172.988 199.467 171.608V171.248C199.467 169.868 199.803 168.764 200.475 167.936C201.159 167.108 202.143 166.694 203.427 166.694C204.147 166.694 204.783 166.838 205.335 167.126C205.899 167.402 206.337 167.804 206.649 168.332C206.973 168.86 207.135 169.502 207.135 170.258C207.135 170.438 207.123 170.63 207.099 170.834C207.087 171.038 207.057 171.242 207.009 171.446H201.681V171.968C201.681 173.24 201.861 174.158 202.221 174.722C202.581 175.274 203.163 175.55 203.967 175.55C204.483 175.55 204.921 175.4 205.281 175.1C205.641 174.788 205.845 174.266 205.893 173.534L207.045 173.858ZM203.427 167.324C202.839 167.324 202.401 167.594 202.113 168.134C201.825 168.674 201.681 169.568 201.681 170.816H204.939C204.987 170.576 205.017 170.354 205.029 170.15C205.053 169.934 205.065 169.736 205.065 169.556C205.065 168.788 204.915 168.224 204.615 167.864C204.315 167.504 203.919 167.324 203.427 167.324ZM217.681 175.496V176H212.479V175.496L213.469 175.37C213.661 175.346 213.775 175.298 213.811 175.226C213.847 175.142 213.865 174.896 213.865 174.488V168.386C213.865 167.978 213.847 167.738 213.811 167.666C213.775 167.582 213.661 167.528 213.469 167.504L212.479 167.378V166.874H213.865V165.902C213.865 165.326 213.961 164.78 214.153 164.264C214.357 163.736 214.693 163.31 215.161 162.986C215.641 162.662 216.283 162.5 217.087 162.5C217.819 162.5 218.419 162.626 218.887 162.878C219.367 163.13 219.709 163.466 219.913 163.886C220.129 164.306 220.195 164.762 220.111 165.254L218.131 165.542C218.251 164.642 218.215 164.018 218.023 163.67C217.843 163.31 217.531 163.13 217.087 163.13C216.847 163.13 216.637 163.196 216.457 163.328C216.289 163.46 216.157 163.7 216.061 164.048C215.977 164.384 215.935 164.882 215.935 165.542V166.874H218.635V167.504H215.935V174.488C215.935 174.896 215.953 175.142 215.989 175.226C216.025 175.298 216.139 175.346 216.331 175.37L217.681 175.496ZM227.609 171.248V171.608C227.609 172.988 227.249 174.098 226.529 174.938C225.821 175.766 224.807 176.18 223.487 176.18C222.167 176.18 221.147 175.766 220.427 174.938C219.719 174.098 219.365 172.988 219.365 171.608V171.248C219.365 169.868 219.719 168.764 220.427 167.936C221.147 167.108 222.167 166.694 223.487 166.694C224.807 166.694 225.821 167.108 226.529 167.936C227.249 168.764 227.609 169.868 227.609 171.248ZM225.395 170.888C225.395 169.604 225.233 168.692 224.909 168.152C224.585 167.6 224.111 167.324 223.487 167.324C222.875 167.324 222.401 167.6 222.065 168.152C221.741 168.692 221.579 169.604 221.579 170.888V171.968C221.579 173.24 221.741 174.158 222.065 174.722C222.401 175.274 222.875 175.55 223.487 175.55C224.111 175.55 224.585 175.274 224.909 174.722C225.233 174.158 225.395 173.24 225.395 171.968V170.888ZM228.95 167.378V166.874H232.298V168.35C233.03 167.246 233.9 166.694 234.908 166.694C235.28 166.694 235.64 166.814 235.988 167.054C236.336 167.282 236.624 167.714 236.852 168.35L235.25 169.214C235.082 168.722 234.884 168.392 234.656 168.224C234.44 168.044 234.206 167.954 233.954 167.954C233.69 167.954 233.432 168.038 233.18 168.206C232.928 168.374 232.67 168.686 232.406 169.142V174.488C232.406 174.896 232.424 175.142 232.46 175.226C232.496 175.298 232.61 175.346 232.802 175.37L234.152 175.496V176H228.95V175.496L229.94 175.37C230.132 175.346 230.246 175.298 230.282 175.226C230.318 175.142 230.336 174.896 230.336 174.488V168.386C230.336 167.978 230.318 167.738 230.282 167.666C230.246 167.582 230.132 167.528 229.94 167.504L228.95 167.378ZM245.119 173.858C244.903 174.698 244.501 175.298 243.913 175.658C243.325 176.006 242.641 176.18 241.861 176.18C240.421 176.18 239.341 175.766 238.621 174.938C237.901 174.098 237.541 172.988 237.541 171.608V171.248C237.541 169.868 237.877 168.764 238.549 167.936C239.233 167.108 240.217 166.694 241.501 166.694C242.221 166.694 242.857 166.838 243.409 167.126C243.973 167.402 244.411 167.804 244.723 168.332C245.047 168.86 245.209 169.502 245.209 170.258C245.209 170.438 245.197 170.63 245.173 170.834C245.161 171.038 245.131 171.242 245.083 171.446H239.755V171.968C239.755 173.24 239.935 174.158 240.295 174.722C240.655 175.274 241.237 175.55 242.041 175.55C242.557 175.55 242.995 175.4 243.355 175.1C243.715 174.788 243.919 174.266 243.967 173.534L245.119 173.858ZM241.501 167.324C240.913 167.324 240.475 167.594 240.187 168.134C239.899 168.674 239.755 169.568 239.755 170.816H243.013C243.061 170.576 243.091 170.354 243.103 170.15C243.127 169.934 243.139 169.736 243.139 169.556C243.139 168.788 242.989 168.224 242.689 167.864C242.389 167.504 241.993 167.324 241.501 167.324ZM250.632 172.598L249.39 172.31C248.586 172.118 247.986 171.776 247.59 171.284C247.206 170.78 247.014 170.186 247.014 169.502C247.014 168.998 247.122 168.536 247.338 168.116C247.566 167.684 247.92 167.342 248.4 167.09C248.88 166.826 249.504 166.694 250.272 166.694C251.1 166.694 251.772 166.826 252.288 167.09C252.804 167.354 253.17 167.702 253.386 168.134C253.602 168.566 253.668 169.028 253.584 169.52L251.604 169.88C251.772 169.064 251.724 168.434 251.46 167.99C251.208 167.546 250.782 167.324 250.182 167.324C249.762 167.324 249.414 167.45 249.138 167.702C248.862 167.942 248.724 168.29 248.724 168.746C248.724 169.166 248.844 169.538 249.084 169.862C249.324 170.174 249.678 170.384 250.146 170.492L251.388 170.78C252.276 170.984 252.918 171.308 253.314 171.752C253.71 172.184 253.908 172.724 253.908 173.372C253.908 174.176 253.608 174.848 253.008 175.388C252.42 175.916 251.538 176.18 250.362 176.18C249.954 176.18 249.504 176.12 249.012 176C248.532 175.868 248.088 175.634 247.68 175.298C247.284 174.962 246.996 174.482 246.816 173.858L247.986 173.39C248.07 174.182 248.34 174.74 248.796 175.064C249.264 175.388 249.786 175.55 250.362 175.55C250.902 175.55 251.34 175.43 251.676 175.19C252.024 174.938 252.198 174.578 252.198 174.11C252.198 173.786 252.084 173.492 251.856 173.228C251.64 172.952 251.232 172.742 250.632 172.598ZM261.585 174.128C261.429 174.86 261.129 175.388 260.685 175.712C260.253 176.024 259.725 176.18 259.101 176.18C258.465 176.18 257.943 176.042 257.535 175.766C257.127 175.478 256.827 175.1 256.635 174.632C256.443 174.164 256.347 173.666 256.347 173.138V168.386C256.347 167.978 256.329 167.738 256.293 167.666C256.257 167.582 256.143 167.528 255.951 167.504L254.961 167.378V166.874H256.347V164.786L258.417 164.372V166.874H261.297V167.504H258.417V173.498C258.417 174.266 258.513 174.8 258.705 175.1C258.897 175.388 259.143 175.532 259.443 175.532C259.755 175.532 259.995 175.412 260.163 175.172C260.343 174.932 260.457 174.494 260.505 173.858L261.585 174.128ZM264.15 176.18C263.778 176.18 263.472 176.066 263.232 175.838C263.004 175.598 262.89 175.286 262.89 174.902C262.89 174.518 263.004 174.212 263.232 173.984C263.472 173.756 263.778 173.642 264.15 173.642C264.522 173.642 264.828 173.756 265.068 173.984C265.308 174.212 265.428 174.518 265.428 174.902C265.428 175.286 265.308 175.598 265.068 175.838C264.828 176.066 264.522 176.18 264.15 176.18Z" fill="black"/>
</svg>
