<svg width="354" height="354" viewBox="0 0 354 354" fill="none" xmlns="http://www.w3.org/2000/svg">
<mask id="mask0_103_2164" style="mask-type:luminance" maskUnits="userSpaceOnUse" x="10" y="90" width="330" height="182">
<path d="M10.7969 90.624H339.84V271.511H10.7969V90.624Z" fill="white"/>
</mask>
<g mask="url(#mask0_103_2164)">
<path d="M299.491 91.0259L50.5076 97.7187C28.6112 97.7187 10.8596 115.489 10.8596 137.407V184.983C10.8596 206.902 28.6112 224.668 50.5076 224.668H75.4314C72.1754 240.513 62.8165 259.309 38.4642 271.518C38.4642 271.518 89.5767 266.127 117.045 224.668H292.806C314.702 224.668 332.454 206.898 332.454 184.983L339.139 130.714C339.139 108.796 321.388 91.0259 299.491 91.0259Z" fill="black"/>
</g>
<path d="M302.888 84.0454L62.127 90.517C40.9534 90.517 23.7881 107.697 23.7881 128.893V174.894C23.7881 196.09 40.9534 213.27 62.127 213.27H86.2285C83.0831 228.592 74.0303 246.767 50.4856 258.575C50.4856 258.575 99.9055 253.361 126.467 213.27H296.423C317.597 213.27 334.762 196.09 334.762 174.894L341.227 122.421C341.227 101.225 324.061 84.0454 302.888 84.0454Z" fill="white"/>
<mask id="mask1_103_2164" style="mask-type:luminance" maskUnits="userSpaceOnUse" x="21" y="82" width="322" height="180">
<path d="M21.7119 82.4746H342.849V261.488H21.7119V82.4746Z" fill="white"/>
</mask>
<g mask="url(#mask1_103_2164)">
<path d="M42.0889 261.038L49.7847 257.178C68.2849 247.9 79.8821 233.662 84.285 214.838H62.1305C40.1272 214.838 22.2244 196.92 22.2244 174.895V128.893C22.2244 106.875 40.1124 88.9611 62.1084 88.9501L302.865 82.4785H302.887C324.891 82.4785 342.794 100.396 342.794 122.422V122.517L342.779 122.61L336.326 174.994C336.274 196.972 318.393 214.838 296.423 214.838H127.303C121.212 223.846 113.483 231.815 104.315 238.526C96.8077 244.024 88.3228 248.693 79.1004 252.41C63.4027 258.73 51.1639 260.076 50.6513 260.131L42.0889 261.035V261.038ZM62.1305 92.0845C41.8529 92.0845 25.3551 108.597 25.3551 128.893V174.898C25.3551 195.194 41.8529 211.707 62.1305 211.707H88.1458L87.7623 213.588C85.8964 222.677 82.3712 230.941 77.2861 238.146C72.5661 244.835 66.4928 250.614 59.1657 255.404C64.0959 254.272 70.715 252.421 78.0236 249.471C92.0914 243.792 111.687 232.752 125.165 212.411L125.629 211.707H296.423C316.701 211.707 333.199 195.194 333.199 174.898V174.802L333.21 174.707L339.663 122.326C339.611 102.081 323.147 85.624 302.91 85.6129L62.1526 92.0845H62.1305Z" fill="black"/>
</g>
<path d="M120.651 210.895C112.815 224.982 99.3117 235.863 84.3515 241.605L84.2593 241.417C91.0185 237.165 97.5933 232.773 103.703 227.648C109.825 222.559 115.315 216.873 120.478 210.777L120.651 210.895Z" fill="black"/>
<path d="M243.04 207.116C229.167 208.218 215.251 208.307 201.345 207.927C196.713 207.776 192.078 207.554 187.447 207.116V206.905C201.319 205.703 215.236 205.744 229.141 206.124C233.773 206.293 238.408 206.496 243.04 206.905V207.116Z" fill="black"/>
<path d="M328.424 178.353C328.951 186.13 324.744 194.317 318.242 198.561L318.099 198.41C321.558 193.885 324.478 189.106 326.421 183.759C327.081 182 327.635 180.197 328.217 178.335L328.424 178.353Z" fill="black"/>
<path d="M285 90.6867C290.947 89.9049 296.925 89.5583 302.91 89.3223C311.295 89.2228 319.795 92.8218 325.215 99.238L325.072 99.3892C319.231 94.7909 312.243 91.8372 304.849 91.3763C304.267 91.3246 303.522 91.3246 302.936 91.2951C300.517 91.3357 298.053 91.3505 295.638 91.321C292.098 91.2767 288.554 91.1771 285.003 90.8932L285 90.683V90.6867Z" fill="black"/>
<path d="M60.0547 96.7414C69.6164 95.7089 79.2076 95.4507 88.8135 95.4434C92.0143 95.4544 95.2113 95.5134 98.4158 95.7015L98.4195 95.9117C88.8652 96.911 79.2592 97.2023 69.657 97.2023C66.4599 97.1949 63.2518 97.1249 60.0658 96.9515L60.051 96.7414H60.0547Z" fill="black"/>
<path d="M31.3253 184.246C29.806 180.503 29.4115 176.3 29.4078 172.262C29.3598 169.909 29.323 167.343 29.3193 165.008C29.2971 158.581 29.4078 152.069 29.9425 145.66H30.1526C30.8164 153.688 30.8422 161.797 30.7316 169.843C30.7168 171.045 30.6652 173.479 30.6246 174.677C30.5103 177.856 30.8275 181.038 31.5244 184.187L31.3253 184.246Z" fill="black"/>
<path d="M116.574 139.34C114.489 139.34 112.721 138.898 111.27 138.014C109.82 137.107 108.72 135.838 107.972 134.206C107.224 132.574 106.85 130.67 106.85 128.494V126.352C106.85 124.176 107.179 122.283 107.836 120.674C108.516 119.042 109.525 117.784 110.862 116.9C112.2 115.993 113.877 115.54 115.894 115.54C117.617 115.54 119.056 115.88 120.212 116.56C121.368 117.217 122.218 118.101 122.762 119.212C123.329 120.3 123.567 121.49 123.476 122.782L119.498 123.768C119.725 121.501 119.487 119.767 118.784 118.566C118.104 117.342 117.084 116.73 115.724 116.73C114.274 116.73 113.152 117.342 112.358 118.566C111.588 119.79 111.202 121.819 111.202 124.652V130.194C111.202 133.005 111.644 135.033 112.528 136.28C113.412 137.527 114.761 138.15 116.574 138.15C117.322 138.15 118.014 138.014 118.648 137.742C119.306 137.47 119.85 137.005 120.28 136.348C120.734 135.668 121.017 134.716 121.13 133.492L123.578 134.138C123.261 135.407 122.751 136.427 122.048 137.198C121.346 137.969 120.518 138.524 119.566 138.864C118.637 139.181 117.64 139.34 116.574 139.34ZM145.566 126.352V128.494C145.566 131.985 144.784 134.671 143.22 136.552C141.678 138.411 139.389 139.34 136.352 139.34C133.314 139.34 131.014 138.411 129.45 136.552C127.908 134.671 127.138 131.985 127.138 128.494V126.352C127.138 122.861 127.908 120.187 129.45 118.328C131.014 116.469 133.314 115.54 136.352 115.54C139.389 115.54 141.678 116.469 143.22 118.328C144.784 120.187 145.566 122.861 145.566 126.352ZM141.214 124.652C141.214 122.657 141.044 121.093 140.704 119.96C140.364 118.804 139.831 117.977 139.106 117.478C138.403 116.979 137.485 116.73 136.352 116.73C135.241 116.73 134.323 116.979 133.598 117.478C132.872 117.977 132.34 118.804 132 119.96C131.66 121.093 131.49 122.657 131.49 124.652V130.194C131.49 132.166 131.66 133.73 132 134.886C132.34 136.042 132.872 136.881 133.598 137.402C134.323 137.901 135.241 138.15 136.352 138.15C137.485 138.15 138.403 137.901 139.106 137.402C139.831 136.881 140.364 136.042 140.704 134.886C141.044 133.73 141.214 132.166 141.214 130.194V124.652ZM149.266 116.832V115.88H159.534C161.914 115.88 163.75 116.413 165.042 117.478C166.334 118.543 166.98 119.971 166.98 121.762V122.544C166.98 123.904 166.606 125.06 165.858 126.012C165.11 126.964 164.033 127.644 162.628 128.052L166.878 136.144C167.15 136.643 167.354 137.005 167.49 137.232C167.626 137.459 167.75 137.606 167.864 137.674C168 137.719 168.181 137.765 168.408 137.81L169.938 138.048V139H163.58L158.446 128.46H155.964V136.144C155.964 136.915 155.998 137.379 156.066 137.538C156.134 137.674 156.349 137.765 156.712 137.81L158.582 138.048V139H149.266V138.048L151.136 137.81C151.498 137.765 151.714 137.674 151.782 137.538C151.85 137.379 151.884 136.915 151.884 136.144V118.736C151.884 117.965 151.85 117.512 151.782 117.376C151.714 117.217 151.498 117.115 151.136 117.07L149.266 116.832ZM159.534 117.07H155.964V127.27H159.534C160.531 127.27 161.29 126.964 161.812 126.352C162.356 125.717 162.628 124.561 162.628 122.884V121.422C162.628 119.745 162.356 118.6 161.812 117.988C161.29 117.376 160.531 117.07 159.534 117.07ZM171.412 116.832V115.88H181.68C184.06 115.88 185.896 116.413 187.188 117.478C188.48 118.543 189.126 119.971 189.126 121.762V122.544C189.126 123.904 188.752 125.06 188.004 126.012C187.256 126.964 186.18 127.644 184.774 128.052L189.024 136.144C189.296 136.643 189.5 137.005 189.636 137.232C189.772 137.459 189.897 137.606 190.01 137.674C190.146 137.719 190.328 137.765 190.554 137.81L192.084 138.048V139H185.726L180.592 128.46H178.11V136.144C178.11 136.915 178.144 137.379 178.212 137.538C178.28 137.674 178.496 137.765 178.858 137.81L180.728 138.048V139H171.412V138.048L173.282 137.81C173.645 137.765 173.86 137.674 173.928 137.538C173.996 137.379 174.03 136.915 174.03 136.144V118.736C174.03 117.965 173.996 117.512 173.928 117.376C173.86 117.217 173.645 117.115 173.282 117.07L171.412 116.832ZM181.68 117.07H178.11V127.27H181.68C182.678 127.27 183.437 126.964 183.958 126.352C184.502 125.717 184.774 124.561 184.774 122.884V121.422C184.774 119.745 184.502 118.6 183.958 117.988C183.437 117.376 182.678 117.07 181.68 117.07ZM209.437 133.152H210.389V139H193.559V138.048L195.429 137.81C195.791 137.765 196.007 137.674 196.075 137.538C196.143 137.379 196.177 136.915 196.177 136.144V118.736C196.177 117.965 196.143 117.512 196.075 117.376C196.007 117.217 195.791 117.115 195.429 117.07L193.559 116.832V115.88H210.049V121.728H209.097L208.009 117.954C207.941 117.682 207.861 117.489 207.771 117.376C207.703 117.24 207.555 117.161 207.329 117.138C207.102 117.093 206.717 117.07 206.173 117.07H200.257V126.726H204.133C204.677 126.726 205.062 126.715 205.289 126.692C205.515 126.647 205.663 126.567 205.731 126.454C205.821 126.318 205.901 126.114 205.969 125.842L206.717 123.088H207.669V131.554H206.717L205.969 128.8C205.901 128.528 205.821 128.335 205.731 128.222C205.663 128.086 205.515 128.007 205.289 127.984C205.062 127.939 204.677 127.916 204.133 127.916H200.257V137.81H206.513C207.057 137.81 207.442 137.799 207.669 137.776C207.895 137.731 208.043 137.651 208.111 137.538C208.201 137.402 208.281 137.198 208.349 136.926L209.437 133.152ZM224.551 139.34C222.466 139.34 220.698 138.898 219.247 138.014C217.796 137.107 216.697 135.838 215.949 134.206C215.201 132.574 214.827 130.67 214.827 128.494V126.352C214.827 124.176 215.156 122.283 215.813 120.674C216.493 119.042 217.502 117.784 218.839 116.9C220.176 115.993 221.854 115.54 223.871 115.54C225.594 115.54 227.033 115.88 228.189 116.56C229.345 117.217 230.195 118.101 230.739 119.212C231.306 120.3 231.544 121.49 231.453 122.782L227.475 123.768C227.702 121.501 227.464 119.767 226.761 118.566C226.081 117.342 225.061 116.73 223.701 116.73C222.25 116.73 221.128 117.342 220.335 118.566C219.564 119.79 219.179 121.819 219.179 124.652V130.194C219.179 133.005 219.621 135.033 220.505 136.28C221.389 137.527 222.738 138.15 224.551 138.15C225.299 138.15 225.99 138.014 226.625 137.742C227.282 137.47 227.826 137.005 228.257 136.348C228.71 135.668 228.994 134.716 229.107 133.492L231.555 134.138C231.238 135.407 230.728 136.427 230.025 137.198C229.322 137.969 228.495 138.524 227.543 138.864C226.614 139.181 225.616 139.34 224.551 139.34ZM233.278 115.88H251.978V121.728H251.026L249.938 117.954C249.87 117.659 249.791 117.455 249.7 117.342C249.632 117.206 249.485 117.127 249.258 117.104C249.031 117.081 248.646 117.07 248.102 117.07H244.668V136.144C244.668 136.915 244.702 137.379 244.77 137.538C244.838 137.674 245.053 137.765 245.416 137.81L247.286 138.048V139H237.97V138.048L239.84 137.81C240.203 137.765 240.418 137.674 240.486 137.538C240.554 137.379 240.588 136.915 240.588 136.144V117.07H237.154C236.633 117.07 236.247 117.081 235.998 117.104C235.771 117.127 235.624 117.206 235.556 117.342C235.488 117.455 235.409 117.659 235.318 117.954L234.23 121.728H233.278V115.88ZM111.346 179.048V180H104.784V179.048L106.654 178.81C106.904 178.765 107.085 178.719 107.198 178.674C107.312 178.606 107.414 178.459 107.504 178.232C107.595 178.005 107.72 177.643 107.878 177.144L114.372 156.88H117.296L123.824 177.144C123.983 177.643 124.108 178.005 124.198 178.232C124.289 178.459 124.391 178.606 124.504 178.674C124.64 178.719 124.822 178.765 125.048 178.81L126.918 179.048V180H117.534V179.048L119.404 178.81C119.767 178.765 119.96 178.674 119.982 178.538C120.028 178.379 119.926 177.915 119.676 177.144L118.384 172.928H110.53L109.204 177.144C108.978 177.915 108.876 178.379 108.898 178.538C108.921 178.674 109.114 178.765 109.476 178.81L111.346 179.048ZM110.938 171.738H118.01L114.508 160.45L110.938 171.738ZM142.513 157.832V156.88H149.109V157.832L147.239 158.07C146.876 158.115 146.661 158.217 146.593 158.376C146.525 158.512 146.491 158.965 146.491 159.736V180H144.621L132.143 159.838V177.144C132.143 177.915 132.177 178.379 132.245 178.538C132.313 178.674 132.528 178.765 132.891 178.81L134.761 179.048V180H128.165V179.048L130.035 178.81C130.398 178.765 130.613 178.674 130.681 178.538C130.749 178.379 130.783 177.915 130.783 177.144V159.736C130.783 158.965 130.749 158.512 130.681 158.376C130.613 158.217 130.398 158.115 130.035 158.07L128.165 157.832V156.88H134.999L145.131 173.166V159.736C145.131 158.965 145.097 158.512 145.029 158.376C144.961 158.217 144.746 158.115 144.383 158.07L142.513 157.832ZM159.395 179.15C160.755 179.15 161.877 178.833 162.761 178.198C163.668 177.541 164.121 176.521 164.121 175.138C164.121 174.118 163.815 173.268 163.203 172.588C162.614 171.908 161.548 171.341 160.007 170.888L156.845 169.936C155.258 169.46 154.034 168.644 153.173 167.488C152.334 166.309 151.915 164.847 151.915 163.102C151.915 161.946 152.176 160.869 152.697 159.872C153.241 158.875 154.057 158.07 155.145 157.458C156.256 156.846 157.65 156.54 159.327 156.54C161.163 156.54 162.648 156.88 163.781 157.56C164.914 158.217 165.708 159.079 166.161 160.144C166.614 161.209 166.728 162.354 166.501 163.578L162.591 164.292C162.954 162.184 162.795 160.563 162.115 159.43C161.458 158.297 160.381 157.73 158.885 157.73C157.729 157.73 156.8 158.07 156.097 158.75C155.417 159.43 155.077 160.405 155.077 161.674C155.077 162.717 155.372 163.635 155.961 164.428C156.573 165.221 157.57 165.833 158.953 166.264L162.115 167.216C163.838 167.715 165.13 168.474 165.991 169.494C166.852 170.491 167.283 171.885 167.283 173.676C167.283 174.945 166.988 176.09 166.399 177.11C165.832 178.107 164.96 178.901 163.781 179.49C162.625 180.057 161.174 180.34 159.429 180.34C158.16 180.34 156.958 180.159 155.825 179.796C154.692 179.411 153.74 178.787 152.969 177.926C152.221 177.065 151.745 175.897 151.541 174.424L153.819 173.608C153.932 175.059 154.25 176.192 154.771 177.008C155.315 177.801 155.984 178.357 156.777 178.674C157.593 178.991 158.466 179.15 159.395 179.15ZM190.157 180L184.581 161.436L179.311 180H176.353L171.627 159.736C171.513 159.215 171.423 158.852 171.355 158.648C171.287 158.421 171.185 158.274 171.049 158.206C170.935 158.138 170.754 158.093 170.505 158.07L168.635 157.832V156.88H178.053V157.832L176.183 158.07C175.82 158.115 175.627 158.206 175.605 158.342C175.582 158.478 175.65 158.943 175.809 159.736L179.345 175.58L184.547 156.88H187.369L192.911 175.24L196.515 159.736C196.696 158.943 196.764 158.478 196.719 158.342C196.673 158.206 196.481 158.115 196.141 158.07L194.271 157.832V156.88H200.867V157.832L198.997 158.07C198.747 158.093 198.566 158.138 198.453 158.206C198.339 158.274 198.237 158.421 198.147 158.648C198.079 158.852 197.988 159.215 197.875 159.736L193.149 180H190.157ZM218.053 174.152H219.005V180H202.175V179.048L204.045 178.81C204.408 178.765 204.623 178.674 204.691 178.538C204.759 178.379 204.793 177.915 204.793 177.144V159.736C204.793 158.965 204.759 158.512 204.691 158.376C204.623 158.217 204.408 158.115 204.045 158.07L202.175 157.832V156.88H218.665V162.728H217.713L216.625 158.954C216.557 158.682 216.478 158.489 216.387 158.376C216.319 158.24 216.172 158.161 215.945 158.138C215.718 158.093 215.333 158.07 214.789 158.07H208.873V167.726H212.749C213.293 167.726 213.678 167.715 213.905 167.692C214.132 167.647 214.279 167.567 214.347 167.454C214.438 167.318 214.517 167.114 214.585 166.842L215.333 164.088H216.285V172.554H215.333L214.585 169.8C214.517 169.528 214.438 169.335 214.347 169.222C214.279 169.086 214.132 169.007 213.905 168.984C213.678 168.939 213.293 168.916 212.749 168.916H208.873V178.81H215.129C215.673 178.81 216.058 178.799 216.285 178.776C216.512 178.731 216.659 178.651 216.727 178.538C216.818 178.402 216.897 178.198 216.965 177.926L218.053 174.152ZM222.661 157.832V156.88H232.929C235.309 156.88 237.145 157.413 238.437 158.478C239.729 159.543 240.375 160.971 240.375 162.762V163.544C240.375 164.904 240.001 166.06 239.253 167.012C238.505 167.964 237.429 168.644 236.023 169.052L240.273 177.144C240.545 177.643 240.749 178.005 240.885 178.232C241.021 178.459 241.146 178.606 241.259 178.674C241.395 178.719 241.577 178.765 241.803 178.81L243.333 179.048V180H236.975L231.841 169.46H229.359V177.144C229.359 177.915 229.393 178.379 229.461 178.538C229.529 178.674 229.745 178.765 230.107 178.81L231.977 179.048V180H222.661V179.048L224.531 178.81C224.894 178.765 225.109 178.674 225.177 178.538C225.245 178.379 225.279 177.915 225.279 177.144V159.736C225.279 158.965 225.245 158.512 225.177 158.376C225.109 158.217 224.894 158.115 224.531 158.07L222.661 157.832ZM232.929 158.07H229.359V168.27H232.929C233.927 168.27 234.686 167.964 235.207 167.352C235.751 166.717 236.023 165.561 236.023 163.884V162.422C236.023 160.745 235.751 159.6 235.207 158.988C234.686 158.376 233.927 158.07 232.929 158.07ZM248.276 173.132H247.086C247.086 171.591 247.04 170.242 246.95 169.086C246.859 167.93 246.746 166.887 246.61 165.958C246.474 165.006 246.338 164.088 246.202 163.204C246.066 162.32 245.952 161.379 245.862 160.382C245.771 159.362 245.726 158.195 245.726 156.88H249.636C249.636 158.195 249.59 159.362 249.5 160.382C249.409 161.379 249.296 162.32 249.16 163.204C249.024 164.088 248.888 165.006 248.752 165.958C248.616 166.887 248.502 167.93 248.412 169.086C248.321 170.242 248.276 171.591 248.276 173.132ZM247.664 180.34C246.961 180.34 246.383 180.125 245.93 179.694C245.499 179.241 245.284 178.651 245.284 177.926C245.284 177.201 245.499 176.623 245.93 176.192C246.383 175.761 246.961 175.546 247.664 175.546C248.366 175.546 248.944 175.761 249.398 176.192C249.851 176.623 250.078 177.201 250.078 177.926C250.078 178.651 249.851 179.241 249.398 179.694C248.944 180.125 248.366 180.34 247.664 180.34Z" fill="black"/>
</svg>
