<svg width="98" height="94" viewBox="0 0 98 94" fill="none" xmlns="http://www.w3.org/2000/svg">
<g clip-path="url(#clip0_103_2222)">
<mask id="mask0_103_2222" style="mask-type:luminance" maskUnits="userSpaceOnUse" x="3" y="5" width="92" height="88">
<path d="M11.7051 5.125L94.3333 13.6483L86.1875 92.6173L3.55927 84.094L11.7051 5.125Z" fill="white"/>
</mask>
<g mask="url(#mask0_103_2222)">
<path d="M65.7033 34.1201C65.205 33.9997 64.7984 33.6409 64.6157 33.1625L56.6932 12.4126C56.0431 10.7099 54.5178 9.54036 52.7067 9.35354C52.6919 9.35201 52.6772 9.35049 52.6624 9.34897C50.832 9.17694 49.095 10.0416 48.1302 11.6066L36.475 30.5133C36.2054 30.9496 35.7398 31.225 35.2273 31.2513L13.0402 32.3701C11.204 32.4621 9.60992 33.568 8.8794 35.256C8.14989 36.9432 8.43661 38.8619 9.62769 40.2626L24.0129 57.1879C24.3445 57.5781 24.4633 58.1076 24.3293 58.6017L18.5388 80.0426C18.0594 81.817 18.619 83.6745 19.9987 84.8904C20.7677 85.5672 21.7014 85.9664 22.6725 86.0666C23.4444 86.1462 24.2394 86.0371 24.9928 85.7271L45.5386 77.2804C46.0135 77.0861 46.5525 77.137 46.9822 77.4172L65.5907 89.5496C67.1312 90.5538 69.071 90.5964 70.6533 89.6589C72.2355 88.7223 73.1315 87.002 72.9916 85.1692L71.3045 63.0251C71.2659 62.5141 71.4813 62.0163 71.8798 61.6948L89.1714 47.7519C90.6027 46.5975 91.2417 44.7668 90.8406 42.9723C90.4385 41.1787 89.0789 39.7942 87.2913 39.361L65.7033 34.1201Z" fill="#1B181A"/>
</g>
<path d="M87.1387 45.2314C87.6103 44.8513 87.8128 44.2711 87.6799 43.6795C87.548 43.0881 87.117 42.6494 86.5278 42.5066L81.3324 41.2456L64.939 37.2656C63.405 36.8939 62.1534 35.7908 61.5898 34.3161L53.6681 13.5671C53.4539 13.0054 52.9712 12.635 52.3745 12.5734C52.369 12.5729 52.3634 12.5723 52.3588 12.5718C51.7551 12.5152 51.205 12.7893 50.887 13.3054L39.2319 32.2111C38.4036 33.5554 36.9674 34.4045 35.3906 34.4841L16.8751 35.4178L13.2035 35.6029C12.5983 35.6337 12.0933 35.9842 11.8524 36.54C11.6124 37.0959 11.7024 37.7044 12.0956 38.1663L26.48 55.0905C26.4891 55.1017 26.4965 55.1118 26.5057 55.1221C27.5077 56.3224 27.8643 57.9343 27.4558 59.4458L23.4038 74.4497L21.6653 80.8866C21.5071 81.4714 21.6849 82.0602 22.1395 82.4603C22.5939 82.8613 23.2004 82.963 23.7611 82.7319L44.3069 74.2861C45.7678 73.6856 47.4282 73.8429 48.7512 74.7054L67.3599 86.8369C67.8671 87.1688 68.4818 87.1819 69.0039 86.8732C69.5251 86.5644 69.8087 86.0195 69.763 85.4146L68.076 63.2695C67.9559 61.6961 68.6181 60.165 69.8471 59.1743L87.1387 45.2314Z" fill="#F8ED48"/>
<path d="M17.5437 38.8577C17.2014 37.7488 17.0599 36.5729 16.8752 35.4177L13.2036 35.6029C12.5983 35.6336 12.0934 35.9842 11.8524 36.5399C11.6124 37.0958 11.7025 37.7044 12.0957 38.1662L26.4801 55.0905C26.4892 55.1017 26.4965 55.1118 26.5057 55.122C26.5137 55.0362 26.5214 54.9522 26.5277 54.8643C26.9517 48.63 19.3844 44.8298 17.5437 38.8577Z" fill="#F9A72B"/>
<path d="M86.5278 42.5067L81.3324 41.2456C81.8015 42.0741 82.0052 43.0271 81.7458 43.9333C81.3472 45.3312 80.0228 46.2263 78.7946 47.0009C75.8651 48.846 72.9356 50.6921 70.008 52.5365C68.5136 53.4803 66.973 54.4649 66.0024 55.9417C64.8403 57.711 64.6599 59.9302 64.5611 62.044C64.4233 65.0607 64.3811 68.0816 64.4405 71.1009C64.4559 71.9012 64.4693 72.7377 64.1171 73.4591C63.1727 75.3776 60.2859 75.255 58.4762 74.1139C56.6684 72.9731 55.3091 71.1525 53.3535 70.2872C50.4742 69.0162 47.1563 70.1279 44.2136 71.2429C40.8518 72.5168 37.4938 73.7912 34.1322 75.0633C32.1701 75.8069 29.9913 75.8226 27.8999 75.9853C27.0113 76.0521 26.0931 76.1177 25.2477 75.8375C24.4845 75.5836 23.8781 75.0839 23.4039 74.4497L21.6653 80.8867C21.5071 81.4715 21.685 82.0602 22.1395 82.4603C22.594 82.8614 23.2005 82.9631 23.7611 82.732L44.3069 74.2862C45.7678 73.6857 47.4282 73.843 48.7513 74.7055L67.3599 86.8369C67.8672 87.1689 68.4819 87.1819 69.004 86.8732C69.5251 86.5644 69.8087 86.0196 69.763 85.4147L68.076 63.2696C67.956 61.6961 68.6181 60.1651 69.8471 59.1744L87.1387 45.2315C87.6104 44.8514 87.8128 44.2711 87.68 43.6796C87.548 43.0881 87.117 42.6494 86.5278 42.5067Z" fill="#F9A72B"/>
<path d="M33.2912 40.1646C35.2187 40.1547 37.1856 40.2327 39.1053 40.0449C40.9213 39.8687 42.2198 38.9178 43.1501 37.38C43.6715 36.5176 44.2087 35.5841 44.4565 34.6087C44.6503 34.3659 44.8413 34.1135 45.0388 33.8524C46.0036 32.5762 46.9167 31.2687 47.7524 29.8982C48.5511 28.5882 49.3595 27.2838 50.1776 25.9851C50.9644 24.7363 52.2833 23.2078 52.2563 21.6718C52.2374 20.5627 51.307 19.7342 50.1896 20.1855C48.7891 20.7522 47.9872 22.3368 47.1962 23.5451C46.3556 24.8275 45.5246 26.1156 44.7034 27.4093C43.872 28.7197 43.08 30.0724 42.4135 31.4743C42.0364 32.2658 41.6401 33.0358 41.3813 33.846C41.0272 34.3426 40.7032 34.8637 40.358 35.337C40.0474 35.7635 39.7958 36.17 39.2626 36.2977C38.629 36.4495 37.8988 36.3452 37.2578 36.3518C35.643 36.367 34.0267 36.4053 32.4132 36.4523C30.9454 36.4957 28.7766 36.3885 27.5961 37.3329C26.9198 37.8727 26.9738 38.9212 27.6491 39.4307C28.4549 40.0395 29.3935 39.9853 30.3586 40.0616C31.3404 40.1386 32.3066 40.1693 33.2912 40.1646Z" fill="white"/>
<path d="M22.1013 37.0408C21.0915 37.0727 20.3096 37.993 20.4794 39.004C20.8481 41.2025 24.4392 40.4787 23.8404 38.4774C23.5895 37.6389 23.0531 37.0113 22.1013 37.0408Z" fill="white"/>
<path d="M29.9105 61.7979C28.5075 62.7595 28.0238 65.1263 27.5399 66.6636C27.2655 67.5356 27.0108 68.4236 26.8025 69.3136C26.5658 70.3246 26.5916 71.0776 26.6583 72.1022C26.7198 73.0517 28.16 73.3466 28.6552 72.5757C29.1671 71.7785 29.5574 71.1841 29.8579 70.2681C30.1409 69.4035 30.4091 68.5299 30.6713 67.6595C31.1254 66.148 32.1806 64.0685 31.7432 62.4902C31.5076 61.6393 30.6557 61.2867 29.9105 61.7979Z" fill="white"/>
<path d="M67.5266 42.7378C68.8636 43.5822 70.3955 44.1186 71.8997 44.5888C72.6301 44.817 73.3582 45.0412 74.1071 45.2079C75 45.4063 75.5554 45.4346 76.4416 45.2819C77.2614 45.1409 77.4011 44.1478 76.8282 43.6488C76.2047 43.1064 75.7502 42.8498 74.9647 42.5498C74.2393 42.2727 73.4952 42.0505 72.7544 41.8147C71.3123 41.3566 69.8318 40.846 68.3262 40.6599C67.2285 40.5234 66.5449 42.1174 67.5266 42.7378Z" fill="white"/>
</g>
<defs>
<clipPath id="clip0_103_2222">
<rect width="89" height="89" fill="white" transform="translate(9.13208) rotate(5.88935)"/>
</clipPath>
</defs>
</svg>
