<svg width="354" height="354" viewBox="0 0 354 354" fill="none" xmlns="http://www.w3.org/2000/svg">
<mask id="mask0_103_2362" style="mask-type:luminance" maskUnits="userSpaceOnUse" x="10" y="90" width="330" height="182">
<path d="M10.7969 90.624H339.84V271.511H10.7969V90.624Z" fill="white"/>
</mask>
<g mask="url(#mask0_103_2362)">
<path d="M299.491 91.0259L50.5076 97.7187C28.6112 97.7187 10.8596 115.489 10.8596 137.407V184.983C10.8596 206.902 28.6112 224.668 50.5076 224.668H75.4314C72.1754 240.513 62.8165 259.309 38.4642 271.518C38.4642 271.518 89.5767 266.127 117.045 224.668H292.806C314.702 224.668 332.454 206.898 332.454 184.983L339.139 130.714C339.139 108.796 321.388 91.0259 299.491 91.0259Z" fill="black"/>
</g>
<path d="M302.888 84.0454L62.127 90.517C40.9534 90.517 23.7881 107.697 23.7881 128.893V174.894C23.7881 196.09 40.9534 213.27 62.127 213.27H86.2285C83.0831 228.592 74.0303 246.767 50.4856 258.575C50.4856 258.575 99.9055 253.361 126.467 213.27H296.423C317.597 213.27 334.762 196.09 334.762 174.894L341.227 122.421C341.227 101.225 324.061 84.0454 302.888 84.0454Z" fill="white"/>
<mask id="mask1_103_2362" style="mask-type:luminance" maskUnits="userSpaceOnUse" x="21" y="82" width="322" height="180">
<path d="M21.7119 82.4746H342.849V261.488H21.7119V82.4746Z" fill="white"/>
</mask>
<g mask="url(#mask1_103_2362)">
<path d="M42.0889 261.038L49.7847 257.178C68.2849 247.9 79.8821 233.662 84.285 214.838H62.1305C40.1272 214.838 22.2244 196.92 22.2244 174.895V128.893C22.2244 106.875 40.1124 88.9611 62.1084 88.9501L302.865 82.4785H302.887C324.891 82.4785 342.794 100.396 342.794 122.422V122.517L342.779 122.61L336.326 174.994C336.274 196.972 318.393 214.838 296.423 214.838H127.303C121.212 223.846 113.483 231.815 104.315 238.526C96.8077 244.024 88.3228 248.693 79.1004 252.41C63.4027 258.73 51.1639 260.076 50.6513 260.131L42.0889 261.035V261.038ZM62.1305 92.0845C41.8529 92.0845 25.3551 108.597 25.3551 128.893V174.898C25.3551 195.194 41.8529 211.707 62.1305 211.707H88.1458L87.7623 213.588C85.8964 222.677 82.3712 230.941 77.2861 238.146C72.5661 244.835 66.4928 250.614 59.1657 255.404C64.0959 254.272 70.715 252.421 78.0236 249.471C92.0914 243.792 111.687 232.752 125.165 212.411L125.629 211.707H296.423C316.701 211.707 333.199 195.194 333.199 174.898V174.802L333.21 174.707L339.663 122.326C339.611 102.081 323.147 85.624 302.91 85.6129L62.1526 92.0845H62.1305Z" fill="black"/>
</g>
<path d="M120.651 210.895C112.815 224.982 99.3117 235.863 84.3515 241.605L84.2593 241.417C91.0185 237.165 97.5933 232.773 103.703 227.648C109.825 222.559 115.315 216.873 120.478 210.777L120.651 210.895Z" fill="black"/>
<path d="M243.04 207.116C229.167 208.218 215.251 208.307 201.345 207.927C196.713 207.776 192.078 207.554 187.447 207.116V206.905C201.319 205.703 215.236 205.744 229.141 206.124C233.773 206.293 238.408 206.496 243.04 206.905V207.116Z" fill="black"/>
<path d="M328.424 178.353C328.951 186.13 324.744 194.317 318.242 198.561L318.099 198.41C321.558 193.885 324.478 189.106 326.421 183.759C327.081 182 327.635 180.197 328.217 178.335L328.424 178.353Z" fill="black"/>
<path d="M285 90.6867C290.947 89.9049 296.925 89.5583 302.91 89.3223C311.295 89.2228 319.795 92.8218 325.215 99.238L325.072 99.3892C319.231 94.7909 312.243 91.8372 304.849 91.3763C304.267 91.3246 303.522 91.3246 302.936 91.2951C300.517 91.3357 298.053 91.3505 295.638 91.321C292.098 91.2767 288.554 91.1771 285.003 90.8932L285 90.683V90.6867Z" fill="black"/>
<path d="M60.0547 96.7414C69.6164 95.7089 79.2076 95.4507 88.8135 95.4434C92.0143 95.4544 95.2113 95.5134 98.4158 95.7015L98.4195 95.9117C88.8652 96.911 79.2592 97.2023 69.657 97.2023C66.4599 97.1949 63.2518 97.1249 60.0658 96.9515L60.051 96.7414H60.0547Z" fill="black"/>
<path d="M31.3253 184.246C29.806 180.503 29.4115 176.3 29.4078 172.262C29.3598 169.909 29.323 167.343 29.3193 165.008C29.2971 158.581 29.4078 152.069 29.9425 145.66H30.1526C30.8164 153.688 30.8422 161.797 30.7316 169.843C30.7168 171.045 30.6652 173.479 30.6246 174.677C30.5103 177.856 30.8275 181.038 31.5244 184.187L31.3253 184.246Z" fill="black"/>
<path d="M134.624 139L129.048 120.436L123.778 139H120.82L116.094 118.736C115.981 118.215 115.89 117.852 115.822 117.648C115.754 117.421 115.652 117.274 115.516 117.206C115.403 117.138 115.222 117.093 114.972 117.07L113.102 116.832V115.88H122.52V116.832L120.65 117.07C120.288 117.115 120.095 117.206 120.072 117.342C120.05 117.478 120.118 117.943 120.276 118.736L123.812 134.58L129.014 115.88H131.836L137.378 134.24L140.982 118.736C141.164 117.943 141.232 117.478 141.186 117.342C141.141 117.206 140.948 117.115 140.608 117.07L138.738 116.832V115.88H145.334V116.832L143.464 117.07C143.215 117.093 143.034 117.138 142.92 117.206C142.807 117.274 142.705 117.421 142.614 117.648C142.546 117.852 142.456 118.215 142.342 118.736L137.616 139H134.624ZM146.643 116.832V115.88H156.911C159.291 115.88 161.127 116.413 162.419 117.478C163.711 118.543 164.357 119.971 164.357 121.762V122.544C164.357 123.904 163.983 125.06 163.235 126.012C162.487 126.964 161.41 127.644 160.005 128.052L164.255 136.144C164.527 136.643 164.731 137.005 164.867 137.232C165.003 137.459 165.127 137.606 165.241 137.674C165.377 137.719 165.558 137.765 165.785 137.81L167.315 138.048V139H160.957L155.823 128.46H153.341V136.144C153.341 136.915 153.375 137.379 153.443 137.538C153.511 137.674 153.726 137.765 154.089 137.81L155.959 138.048V139H146.643V138.048L148.513 137.81C148.875 137.765 149.091 137.674 149.159 137.538C149.227 137.379 149.261 136.915 149.261 136.144V118.736C149.261 117.965 149.227 117.512 149.159 117.376C149.091 117.217 148.875 117.115 148.513 117.07L146.643 116.832ZM156.911 117.07H153.341V127.27H156.911C157.908 127.27 158.667 126.964 159.189 126.352C159.733 125.717 160.005 124.561 160.005 122.884V121.422C160.005 119.745 159.733 118.6 159.189 117.988C158.667 117.376 157.908 117.07 156.911 117.07ZM187.999 126.352V128.494C187.999 131.985 187.217 134.671 185.653 136.552C184.112 138.411 181.822 139.34 178.785 139.34C175.748 139.34 173.447 138.411 171.883 136.552C170.342 134.671 169.571 131.985 169.571 128.494V126.352C169.571 122.861 170.342 120.187 171.883 118.328C173.447 116.469 175.748 115.54 178.785 115.54C181.822 115.54 184.112 116.469 185.653 118.328C187.217 120.187 187.999 122.861 187.999 126.352ZM183.647 124.652C183.647 122.657 183.477 121.093 183.137 119.96C182.797 118.804 182.264 117.977 181.539 117.478C180.836 116.979 179.918 116.73 178.785 116.73C177.674 116.73 176.756 116.979 176.031 117.478C175.306 117.977 174.773 118.804 174.433 119.96C174.093 121.093 173.923 122.657 173.923 124.652V130.194C173.923 132.166 174.093 133.73 174.433 134.886C174.773 136.042 175.306 136.881 176.031 137.402C176.756 137.901 177.674 138.15 178.785 138.15C179.918 138.15 180.836 137.901 181.539 137.402C182.264 136.881 182.797 136.042 183.137 134.886C183.477 133.73 183.647 132.166 183.647 130.194V124.652ZM206.047 116.832V115.88H212.643V116.832L210.773 117.07C210.411 117.115 210.195 117.217 210.127 117.376C210.059 117.512 210.025 117.965 210.025 118.736V139H208.155L195.677 118.838V136.144C195.677 136.915 195.711 137.379 195.779 137.538C195.847 137.674 196.063 137.765 196.425 137.81L198.295 138.048V139H191.699V138.048L193.569 137.81C193.932 137.765 194.147 137.674 194.215 137.538C194.283 137.379 194.317 136.915 194.317 136.144V118.736C194.317 117.965 194.283 117.512 194.215 117.376C194.147 117.217 193.932 117.115 193.569 117.07L191.699 116.832V115.88H198.533L208.665 132.166V118.736C208.665 117.965 208.631 117.512 208.563 117.376C208.495 117.217 208.28 117.115 207.917 117.07L206.047 116.832ZM225.853 129.48V128.528H235.509V129.48L233.639 129.718C233.276 129.763 233.061 129.865 232.993 130.024C232.925 130.16 232.891 130.613 232.891 131.384V139H231.973C231.361 138.365 230.681 137.833 229.933 137.402C229.321 137.946 228.596 138.411 227.757 138.796C226.918 139.159 225.898 139.34 224.697 139.34C222.838 139.34 221.24 138.875 219.903 137.946C218.588 136.994 217.58 135.691 216.877 134.036C216.174 132.359 215.823 130.455 215.823 128.324V126.182C215.823 124.119 216.174 122.295 216.877 120.708C217.58 119.099 218.611 117.841 219.971 116.934C221.331 116.005 222.997 115.54 224.969 115.54C226.828 115.54 228.358 115.88 229.559 116.56C230.783 117.217 231.678 118.101 232.245 119.212C232.812 120.3 233.027 121.49 232.891 122.782L228.913 123.768C229.162 121.501 228.913 119.767 228.165 118.566C227.417 117.342 226.306 116.73 224.833 116.73C221.728 116.73 220.175 119.484 220.175 124.992V129.854C220.175 135.385 221.818 138.15 225.105 138.15C225.83 138.15 226.556 138.003 227.281 137.708C228.029 137.413 228.652 136.983 229.151 136.416V131.384C229.151 130.613 229.117 130.149 229.049 129.99C228.981 129.831 228.766 129.741 228.403 129.718L225.853 129.48ZM111.346 179.048V180H104.784V179.048L106.654 178.81C106.904 178.765 107.085 178.719 107.198 178.674C107.312 178.606 107.414 178.459 107.504 178.232C107.595 178.005 107.72 177.643 107.878 177.144L114.372 156.88H117.296L123.824 177.144C123.983 177.643 124.108 178.005 124.198 178.232C124.289 178.459 124.391 178.606 124.504 178.674C124.64 178.719 124.822 178.765 125.048 178.81L126.918 179.048V180H117.534V179.048L119.404 178.81C119.767 178.765 119.96 178.674 119.982 178.538C120.028 178.379 119.926 177.915 119.676 177.144L118.384 172.928H110.53L109.204 177.144C108.978 177.915 108.876 178.379 108.898 178.538C108.921 178.674 109.114 178.765 109.476 178.81L111.346 179.048ZM110.938 171.738H118.01L114.508 160.45L110.938 171.738ZM142.513 157.832V156.88H149.109V157.832L147.239 158.07C146.876 158.115 146.661 158.217 146.593 158.376C146.525 158.512 146.491 158.965 146.491 159.736V180H144.621L132.143 159.838V177.144C132.143 177.915 132.177 178.379 132.245 178.538C132.313 178.674 132.528 178.765 132.891 178.81L134.761 179.048V180H128.165V179.048L130.035 178.81C130.398 178.765 130.613 178.674 130.681 178.538C130.749 178.379 130.783 177.915 130.783 177.144V159.736C130.783 158.965 130.749 158.512 130.681 158.376C130.613 158.217 130.398 158.115 130.035 158.07L128.165 157.832V156.88H134.999L145.131 173.166V159.736C145.131 158.965 145.097 158.512 145.029 158.376C144.961 158.217 144.746 158.115 144.383 158.07L142.513 157.832ZM159.395 179.15C160.755 179.15 161.877 178.833 162.761 178.198C163.668 177.541 164.121 176.521 164.121 175.138C164.121 174.118 163.815 173.268 163.203 172.588C162.614 171.908 161.548 171.341 160.007 170.888L156.845 169.936C155.258 169.46 154.034 168.644 153.173 167.488C152.334 166.309 151.915 164.847 151.915 163.102C151.915 161.946 152.176 160.869 152.697 159.872C153.241 158.875 154.057 158.07 155.145 157.458C156.256 156.846 157.65 156.54 159.327 156.54C161.163 156.54 162.648 156.88 163.781 157.56C164.914 158.217 165.708 159.079 166.161 160.144C166.614 161.209 166.728 162.354 166.501 163.578L162.591 164.292C162.954 162.184 162.795 160.563 162.115 159.43C161.458 158.297 160.381 157.73 158.885 157.73C157.729 157.73 156.8 158.07 156.097 158.75C155.417 159.43 155.077 160.405 155.077 161.674C155.077 162.717 155.372 163.635 155.961 164.428C156.573 165.221 157.57 165.833 158.953 166.264L162.115 167.216C163.838 167.715 165.13 168.474 165.991 169.494C166.852 170.491 167.283 171.885 167.283 173.676C167.283 174.945 166.988 176.09 166.399 177.11C165.832 178.107 164.96 178.901 163.781 179.49C162.625 180.057 161.174 180.34 159.429 180.34C158.16 180.34 156.958 180.159 155.825 179.796C154.692 179.411 153.74 178.787 152.969 177.926C152.221 177.065 151.745 175.897 151.541 174.424L153.819 173.608C153.932 175.059 154.25 176.192 154.771 177.008C155.315 177.801 155.984 178.357 156.777 178.674C157.593 178.991 158.466 179.15 159.395 179.15ZM190.157 180L184.581 161.436L179.311 180H176.353L171.627 159.736C171.513 159.215 171.423 158.852 171.355 158.648C171.287 158.421 171.185 158.274 171.049 158.206C170.935 158.138 170.754 158.093 170.505 158.07L168.635 157.832V156.88H178.053V157.832L176.183 158.07C175.82 158.115 175.627 158.206 175.605 158.342C175.582 158.478 175.65 158.943 175.809 159.736L179.345 175.58L184.547 156.88H187.369L192.911 175.24L196.515 159.736C196.696 158.943 196.764 158.478 196.719 158.342C196.673 158.206 196.481 158.115 196.141 158.07L194.271 157.832V156.88H200.867V157.832L198.997 158.07C198.747 158.093 198.566 158.138 198.453 158.206C198.339 158.274 198.237 158.421 198.147 158.648C198.079 158.852 197.988 159.215 197.875 159.736L193.149 180H190.157ZM218.053 174.152H219.005V180H202.175V179.048L204.045 178.81C204.408 178.765 204.623 178.674 204.691 178.538C204.759 178.379 204.793 177.915 204.793 177.144V159.736C204.793 158.965 204.759 158.512 204.691 158.376C204.623 158.217 204.408 158.115 204.045 158.07L202.175 157.832V156.88H218.665V162.728H217.713L216.625 158.954C216.557 158.682 216.478 158.489 216.387 158.376C216.319 158.24 216.172 158.161 215.945 158.138C215.718 158.093 215.333 158.07 214.789 158.07H208.873V167.726H212.749C213.293 167.726 213.678 167.715 213.905 167.692C214.132 167.647 214.279 167.567 214.347 167.454C214.438 167.318 214.517 167.114 214.585 166.842L215.333 164.088H216.285V172.554H215.333L214.585 169.8C214.517 169.528 214.438 169.335 214.347 169.222C214.279 169.086 214.132 169.007 213.905 168.984C213.678 168.939 213.293 168.916 212.749 168.916H208.873V178.81H215.129C215.673 178.81 216.058 178.799 216.285 178.776C216.512 178.731 216.659 178.651 216.727 178.538C216.818 178.402 216.897 178.198 216.965 177.926L218.053 174.152ZM222.661 157.832V156.88H232.929C235.309 156.88 237.145 157.413 238.437 158.478C239.729 159.543 240.375 160.971 240.375 162.762V163.544C240.375 164.904 240.001 166.06 239.253 167.012C238.505 167.964 237.429 168.644 236.023 169.052L240.273 177.144C240.545 177.643 240.749 178.005 240.885 178.232C241.021 178.459 241.146 178.606 241.259 178.674C241.395 178.719 241.577 178.765 241.803 178.81L243.333 179.048V180H236.975L231.841 169.46H229.359V177.144C229.359 177.915 229.393 178.379 229.461 178.538C229.529 178.674 229.745 178.765 230.107 178.81L231.977 179.048V180H222.661V179.048L224.531 178.81C224.894 178.765 225.109 178.674 225.177 178.538C225.245 178.379 225.279 177.915 225.279 177.144V159.736C225.279 158.965 225.245 158.512 225.177 158.376C225.109 158.217 224.894 158.115 224.531 158.07L222.661 157.832ZM232.929 158.07H229.359V168.27H232.929C233.927 168.27 234.686 167.964 235.207 167.352C235.751 166.717 236.023 165.561 236.023 163.884V162.422C236.023 160.745 235.751 159.6 235.207 158.988C234.686 158.376 233.927 158.07 232.929 158.07ZM248.276 173.132H247.086C247.086 171.591 247.04 170.242 246.95 169.086C246.859 167.93 246.746 166.887 246.61 165.958C246.474 165.006 246.338 164.088 246.202 163.204C246.066 162.32 245.952 161.379 245.862 160.382C245.771 159.362 245.726 158.195 245.726 156.88H249.636C249.636 158.195 249.59 159.362 249.5 160.382C249.409 161.379 249.296 162.32 249.16 163.204C249.024 164.088 248.888 165.006 248.752 165.958C248.616 166.887 248.502 167.93 248.412 169.086C248.321 170.242 248.276 171.591 248.276 173.132ZM247.664 180.34C246.961 180.34 246.383 180.125 245.93 179.694C245.499 179.241 245.284 178.651 245.284 177.926C245.284 177.201 245.499 176.623 245.93 176.192C246.383 175.761 246.961 175.546 247.664 175.546C248.366 175.546 248.944 175.761 249.398 176.192C249.851 176.623 250.078 177.201 250.078 177.926C250.078 178.651 249.851 179.241 249.398 179.694C248.944 180.125 248.366 180.34 247.664 180.34Z" fill="black"/>
</svg>
